<svg version="1.1" width="96" height="96" viewBox="-1 -1 96 96" xmlns="http://www.w3.org/2000/svg" xmlns:xlink="http://www.w3.org/1999/xlink">
  <!-- Exported by Scratch - http://scratch.mit.edu/ -->
  <path id="ID0.32537064608186483" fill="#00CC44" stroke="none" d="M 196.650 150.650 L 290.650 150.650 L 290.650 244.650 L 196.650 244.650 L 196.650 150.650 Z " transform="matrix(1, 0, 0, 1, -196, -150)"/>
  <g id="ID0.7326555326581001">
    <path id="ID0.8838744298554957" fill="none" stroke="#995900" stroke-width="9" stroke-linecap="round" d="M 206.650 162 L 275.300 162 " transform="matrix(0.3292175233364105, 0, 0, 0.3292175233364105, -61.5, -45.65)"/>
    <path id="ID0.8838744298554957" fill="none" stroke="#995900" stroke-width="9" stroke-linecap="round" d="M 206.650 162 L 275.300 162 " transform="matrix(-0.00032660452416166663, 0.3292173743247986, -0.3292173743247986, -0.00032660452416166663, 82.75, -60.3)"/>
    <path id="ID0.8838744298554957" fill="none" stroke="#995900" stroke-width="9" stroke-linecap="round" d="M 206.650 162 L 275.300 162 " transform="matrix(-0.00032660452416166663, 0.3292173743247986, -0.3292173743247986, -0.00032660452416166663, 59.9, -60.2)"/>
    <path id="ID0.8838744298554957" fill="none" stroke="#995900" stroke-width="9" stroke-linecap="round" d="M 206.650 162 L 275.300 162 " transform="matrix(0.3292175233364105, 0, 0, 0.3292175233364105, -61.3, -22.9)"/>
    <path id="ID0.10159317031502724" fill="#995900" stroke="#995900" stroke-width="9" d="M 210.500 164.650 L 268.850 164.650 L 268.850 223 L 210.500 223 L 210.500 164.650 Z " transform="matrix(0.3292175233364105, 0, 0, 0.3292175233364105, -61.5, -45.65)"/>
    <path id="ID0.8838744298554957" fill="none" stroke="#874C01" stroke-width="9" stroke-linecap="round" d="M 206.650 162 L 272.450 162 " transform="matrix(0.3087514638900757, 0, 0, 0.3292175233364105, -55.85, -25.35)"/>
    <path id="ID0.8838744298554957" fill="none" stroke="#874C01" stroke-width="9" stroke-linecap="round" d="M 206.650 162 L 272.450 162 " transform="matrix(0.3087514638900757, 0, 0, 0.3292175233364105, -55.9, -29.8)"/>
    <path id="ID0.8838744298554957" fill="none" stroke="#874C01" stroke-width="9" stroke-linecap="round" d="M 206.650 162 L 272.450 162 " transform="matrix(0.3087514638900757, 0, 0, 0.3292175233364105, -56.1, -34.3)"/>
    <path id="ID0.8838744298554957" fill="none" stroke="#874C01" stroke-width="9" stroke-linecap="round" d="M 206.650 162 L 272.450 162 " transform="matrix(0.3087514638900757, 0, 0, 0.3292175233364105, -56.15, -38.95)"/>
    <path id="ID0.8838744298554957" fill="none" stroke="#874C01" stroke-width="9" stroke-linecap="round" d="M 206.650 162 L 272.450 162 " transform="matrix(0.3087514638900757, 0, 0, 0.3292175233364105, -56.1, -43.85)"/>
    <path id="ID0.34316520392894745" fill="#00CC44" stroke="none" d="M 215.225 166.500 C 215.618 166.500 215.974 166.660 216.232 166.918 C 216.490 167.176 216.650 167.532 216.650 167.925 C 216.650 168.318 216.490 168.674 216.232 168.932 C 215.974 169.190 215.618 169.350 215.225 169.350 C 214.832 169.350 214.476 169.190 214.218 168.932 C 213.960 168.674 213.800 168.318 213.800 167.925 C 213.800 167.532 213.960 167.176 214.218 166.918 C 214.476 166.660 214.832 166.500 215.225 166.500 Z " transform="matrix(0.3292175233364105, 0, 0, 0.3292175233364105, -61.5, -45.65)"/>
    <path id="ID0.34316520392894745" fill="#00CC44" stroke="none" d="M 215.225 166.500 C 215.618 166.500 215.974 166.660 216.232 166.918 C 216.490 167.176 216.650 167.532 216.650 167.925 C 216.650 168.318 216.490 168.674 216.232 168.932 C 215.974 169.190 215.618 169.350 215.225 169.350 C 214.832 169.350 214.476 169.190 214.218 168.932 C 213.960 168.674 213.800 168.318 213.800 167.925 C 213.800 167.532 213.960 167.176 214.218 166.918 C 214.476 166.660 214.832 166.500 215.225 166.500 Z " transform="matrix(0.3292175233364105, 0, 0, 0.3292175233364105, -54.05, -46.2)"/>
    <path id="ID0.34316520392894745" fill="#00CC44" stroke="none" d="M 215.225 166.500 C 215.618 166.500 215.974 166.660 216.232 166.918 C 216.490 167.176 216.650 167.532 216.650 167.925 C 216.650 168.318 216.490 168.674 216.232 168.932 C 215.974 169.190 215.618 169.350 215.225 169.350 C 214.832 169.350 214.476 169.190 214.218 168.932 C 213.960 168.674 213.800 168.318 213.800 167.925 C 213.800 167.532 213.960 167.176 214.218 166.918 C 214.476 166.660 214.832 166.500 215.225 166.500 Z " transform="matrix(0.3292175233364105, 0, 0, 0.3292175233364105, -48.15, -45.6)"/>
    <path id="ID0.34316520392894745" fill="#00CC44" stroke="none" d="M 215.225 166.500 C 215.618 166.500 215.974 166.660 216.232 166.918 C 216.490 167.176 216.650 167.532 216.650 167.925 C 216.650 168.318 216.490 168.674 216.232 168.932 C 215.974 169.190 215.618 169.350 215.225 169.350 C 214.832 169.350 214.476 169.190 214.218 168.932 C 213.960 168.674 213.800 168.318 213.800 167.925 C 213.800 167.532 213.960 167.176 214.218 166.918 C 214.476 166.660 214.832 166.500 215.225 166.500 Z " transform="matrix(0.3292175233364105, 0, 0, 0.3292175233364105, -60.3, -40.95)"/>
    <path id="ID0.34316520392894745" fill="#00CC44" stroke="none" d="M 215.225 166.500 C 215.618 166.500 215.974 166.660 216.232 166.918 C 216.490 167.176 216.650 167.532 216.650 167.925 C 216.650 168.318 216.490 168.674 216.232 168.932 C 215.974 169.190 215.618 169.350 215.225 169.350 C 214.832 169.350 214.476 169.190 214.218 168.932 C 213.960 168.674 213.800 168.318 213.800 167.925 C 213.800 167.532 213.960 167.176 214.218 166.918 C 214.476 166.660 214.832 166.500 215.225 166.500 Z " transform="matrix(0.3292175233364105, 0, 0, 0.3292175233364105, -50.15, -40.55)"/>
    <path id="ID0.34316520392894745" fill="#00CC44" stroke="none" d="M 215.225 166.500 C 215.618 166.500 215.974 166.660 216.232 166.918 C 216.490 167.176 216.650 167.532 216.650 167.925 C 216.650 168.318 216.490 168.674 216.232 168.932 C 215.974 169.190 215.618 169.350 215.225 169.350 C 214.832 169.350 214.476 169.190 214.218 168.932 C 213.960 168.674 213.800 168.318 213.800 167.925 C 213.800 167.532 213.960 167.176 214.218 166.918 C 214.476 166.660 214.832 166.500 215.225 166.500 Z " transform="matrix(0.3292175233364105, 0, 0, 0.3292175233364105, -55.9, -36.1)"/>
    <path id="ID0.34316520392894745" fill="#00CC44" stroke="none" d="M 215.225 166.500 C 215.618 166.500 215.974 166.660 216.232 166.918 C 216.490 167.176 216.650 167.532 216.650 167.925 C 216.650 168.318 216.490 168.674 216.232 168.932 C 215.974 169.190 215.618 169.350 215.225 169.350 C 214.832 169.350 214.476 169.190 214.218 168.932 C 213.960 168.674 213.800 168.318 213.800 167.925 C 213.800 167.532 213.960 167.176 214.218 166.918 C 214.476 166.660 214.832 166.500 215.225 166.500 Z " transform="matrix(0.3292175233364105, 0, 0, 0.3292175233364105, -44.85, -35.9)"/>
    <path id="ID0.34316520392894745" fill="#00CC44" stroke="none" d="M 215.225 166.500 C 215.618 166.500 215.974 166.660 216.232 166.918 C 216.490 167.176 216.650 167.532 216.650 167.925 C 216.650 168.318 216.490 168.674 216.232 168.932 C 215.974 169.190 215.618 169.350 215.225 169.350 C 214.832 169.350 214.476 169.190 214.218 168.932 C 213.960 168.674 213.800 168.318 213.800 167.925 C 213.800 167.532 213.960 167.176 214.218 166.918 C 214.476 166.660 214.832 166.500 215.225 166.500 Z " transform="matrix(0.3292175233364105, 0, 0, 0.3292175233364105, -60.3, -31.1)"/>
    <path id="ID0.34316520392894745" fill="#00CC44" stroke="none" d="M 215.225 166.500 C 215.618 166.500 215.974 166.660 216.232 166.918 C 216.490 167.176 216.650 167.532 216.650 167.925 C 216.650 168.318 216.490 168.674 216.232 168.932 C 215.974 169.190 215.618 169.350 215.225 169.350 C 214.832 169.350 214.476 169.190 214.218 168.932 C 213.960 168.674 213.800 168.318 213.800 167.925 C 213.800 167.532 213.960 167.176 214.218 166.918 C 214.476 166.660 214.832 166.500 215.225 166.500 Z " transform="matrix(0.3292175233364105, 0, 0, 0.3292175233364105, -48.6, -31.5)"/>
    <path id="ID0.34316520392894745" fill="#00CC44" stroke="none" d="M 215.225 166.500 C 215.618 166.500 215.974 166.660 216.232 166.918 C 216.490 167.176 216.650 167.532 216.650 167.925 C 216.650 168.318 216.490 168.674 216.232 168.932 C 215.974 169.190 215.618 169.350 215.225 169.350 C 214.832 169.350 214.476 169.190 214.218 168.932 C 213.960 168.674 213.800 168.318 213.800 167.925 C 213.800 167.532 213.960 167.176 214.218 166.918 C 214.476 166.660 214.832 166.500 215.225 166.500 Z " transform="matrix(0.3292175233364105, 0, 0, 0.3292175233364105, -60.65, -27.3)"/>
    <path id="ID0.34316520392894745" fill="#00CC44" stroke="none" d="M 215.225 166.500 C 215.618 166.500 215.974 166.660 216.232 166.918 C 216.490 167.176 216.650 167.532 216.650 167.925 C 216.650 168.318 216.490 168.674 216.232 168.932 C 215.974 169.190 215.618 169.350 215.225 169.350 C 214.832 169.350 214.476 169.190 214.218 168.932 C 213.960 168.674 213.800 168.318 213.800 167.925 C 213.800 167.532 213.960 167.176 214.218 166.918 C 214.476 166.660 214.832 166.500 215.225 166.500 Z " transform="matrix(0.3292175233364105, 0, 0, 0.3292175233364105, -44.55, -27.2)"/>
    <path id="ID0.34316520392894745" fill="#00CC44" stroke="none" d="M 215.225 166.500 C 215.618 166.500 215.974 166.660 216.232 166.918 C 216.490 167.176 216.650 167.532 216.650 167.925 C 216.650 168.318 216.490 168.674 216.232 168.932 C 215.974 169.190 215.618 169.350 215.225 169.350 C 214.832 169.350 214.476 169.190 214.218 168.932 C 213.960 168.674 213.800 168.318 213.800 167.925 C 213.800 167.532 213.960 167.176 214.218 166.918 C 214.476 166.660 214.832 166.500 215.225 166.500 Z " transform="matrix(0.3292175233364105, 0, 0, 0.3292175233364105, -50.25, -27.65)"/>
    <path id="ID0.34316520392894745" fill="#00CC44" stroke="none" d="M 215.225 166.500 C 215.618 166.500 215.974 166.660 216.232 166.918 C 216.490 167.176 216.650 167.532 216.650 167.925 C 216.650 168.318 216.490 168.674 216.232 168.932 C 215.974 169.190 215.618 169.350 215.225 169.350 C 214.832 169.350 214.476 169.190 214.218 168.932 C 213.960 168.674 213.800 168.318 213.800 167.925 C 213.800 167.532 213.960 167.176 214.218 166.918 C 214.476 166.660 214.832 166.500 215.225 166.500 Z " transform="matrix(0.3292175233364105, 0, 0, 0.3292175233364105, -56.3, -27.45)"/>
  </g>
  <g id="ID0.7326555326581001">
    <path id="ID0.8838744298554957" fill="none" stroke="#995900" stroke-width="9" stroke-linecap="round" d="M 206.650 162 L 275.300 162 " transform="matrix(0.3292175233364105, 0, 0, 0.3292175233364105, -61.7, -16.75)"/>
    <path id="ID0.8838744298554957" fill="none" stroke="#995900" stroke-width="9" stroke-linecap="round" d="M 206.650 162 L 275.300 162 " transform="matrix(-0.00032660452416166663, 0.3292173743247986, -0.3292173743247986, -0.00032660452416166663, 82.55, -31.4)"/>
    <path id="ID0.8838744298554957" fill="none" stroke="#995900" stroke-width="9" stroke-linecap="round" d="M 206.650 162 L 275.300 162 " transform="matrix(-0.00032660452416166663, 0.3292173743247986, -0.3292173743247986, -0.00032660452416166663, 59.7, -31.3)"/>
    <path id="ID0.8838744298554957" fill="none" stroke="#995900" stroke-width="9" stroke-linecap="round" d="M 206.650 162 L 275.300 162 " transform="matrix(0.3292175233364105, 0, 0, 0.3292175233364105, -61.5, 5.95)"/>
    <path id="ID0.10159317031502724" fill="#995900" stroke="#995900" stroke-width="9" d="M 210.500 164.650 L 268.850 164.650 L 268.850 223 L 210.500 223 L 210.500 164.650 Z " transform="matrix(0.3292175233364105, 0, 0, 0.3292175233364105, -61.7, -16.75)"/>
    <path id="ID0.8838744298554957" fill="none" stroke="#874C01" stroke-width="9" stroke-linecap="round" d="M 206.650 162 L 272.450 162 " transform="matrix(0.3087514638900757, 0, 0, 0.3292175233364105, -56.05, 3.5)"/>
    <path id="ID0.8838744298554957" fill="none" stroke="#874C01" stroke-width="9" stroke-linecap="round" d="M 206.650 162 L 272.450 162 " transform="matrix(0.3087514638900757, 0, 0, 0.3292175233364105, -56.1, -0.9)"/>
    <path id="ID0.8838744298554957" fill="none" stroke="#874C01" stroke-width="9" stroke-linecap="round" d="M 206.650 162 L 272.450 162 " transform="matrix(0.3087514638900757, 0, 0, 0.3292175233364105, -56.3, -5.4)"/>
    <path id="ID0.8838744298554957" fill="none" stroke="#874C01" stroke-width="9" stroke-linecap="round" d="M 206.650 162 L 272.450 162 " transform="matrix(0.3087514638900757, 0, 0, 0.3292175233364105, -56.35, -10.05)"/>
    <path id="ID0.8838744298554957" fill="none" stroke="#874C01" stroke-width="9" stroke-linecap="round" d="M 206.650 162 L 272.450 162 " transform="matrix(0.3087514638900757, 0, 0, 0.3292175233364105, -56.3, -14.95)"/>
    <path id="ID0.34316520392894745" fill="#00CC44" stroke="none" d="M 215.225 166.500 C 215.618 166.500 215.974 166.660 216.232 166.918 C 216.490 167.176 216.650 167.532 216.650 167.925 C 216.650 168.318 216.490 168.674 216.232 168.932 C 215.974 169.190 215.618 169.350 215.225 169.350 C 214.832 169.350 214.476 169.190 214.218 168.932 C 213.960 168.674 213.800 168.318 213.800 167.925 C 213.800 167.532 213.960 167.176 214.218 166.918 C 214.476 166.660 214.832 166.500 215.225 166.500 Z " transform="matrix(0.3292175233364105, 0, 0, 0.3292175233364105, -61.7, -16.75)"/>
    <path id="ID0.34316520392894745" fill="#00CC44" stroke="none" d="M 215.225 166.500 C 215.618 166.500 215.974 166.660 216.232 166.918 C 216.490 167.176 216.650 167.532 216.650 167.925 C 216.650 168.318 216.490 168.674 216.232 168.932 C 215.974 169.190 215.618 169.350 215.225 169.350 C 214.832 169.350 214.476 169.190 214.218 168.932 C 213.960 168.674 213.800 168.318 213.800 167.925 C 213.800 167.532 213.960 167.176 214.218 166.918 C 214.476 166.660 214.832 166.500 215.225 166.500 Z " transform="matrix(0.3292175233364105, 0, 0, 0.3292175233364105, -54.25, -17.3)"/>
    <path id="ID0.34316520392894745" fill="#00CC44" stroke="none" d="M 215.225 166.500 C 215.618 166.500 215.974 166.660 216.232 166.918 C 216.490 167.176 216.650 167.532 216.650 167.925 C 216.650 168.318 216.490 168.674 216.232 168.932 C 215.974 169.190 215.618 169.350 215.225 169.350 C 214.832 169.350 214.476 169.190 214.218 168.932 C 213.960 168.674 213.800 168.318 213.800 167.925 C 213.800 167.532 213.960 167.176 214.218 166.918 C 214.476 166.660 214.832 166.500 215.225 166.500 Z " transform="matrix(0.3292175233364105, 0, 0, 0.3292175233364105, -48.35, -16.7)"/>
    <path id="ID0.34316520392894745" fill="#00CC44" stroke="none" d="M 215.225 166.500 C 215.618 166.500 215.974 166.660 216.232 166.918 C 216.490 167.176 216.650 167.532 216.650 167.925 C 216.650 168.318 216.490 168.674 216.232 168.932 C 215.974 169.190 215.618 169.350 215.225 169.350 C 214.832 169.350 214.476 169.190 214.218 168.932 C 213.960 168.674 213.800 168.318 213.800 167.925 C 213.800 167.532 213.960 167.176 214.218 166.918 C 214.476 166.660 214.832 166.500 215.225 166.500 Z " transform="matrix(0.3292175233364105, 0, 0, 0.3292175233364105, -60.5, -12.05)"/>
    <path id="ID0.34316520392894745" fill="#00CC44" stroke="none" d="M 215.225 166.500 C 215.618 166.500 215.974 166.660 216.232 166.918 C 216.490 167.176 216.650 167.532 216.650 167.925 C 216.650 168.318 216.490 168.674 216.232 168.932 C 215.974 169.190 215.618 169.350 215.225 169.350 C 214.832 169.350 214.476 169.190 214.218 168.932 C 213.960 168.674 213.800 168.318 213.800 167.925 C 213.800 167.532 213.960 167.176 214.218 166.918 C 214.476 166.660 214.832 166.500 215.225 166.500 Z " transform="matrix(0.3292175233364105, 0, 0, 0.3292175233364105, -50.35, -11.65)"/>
    <path id="ID0.34316520392894745" fill="#00CC44" stroke="none" d="M 215.225 166.500 C 215.618 166.500 215.974 166.660 216.232 166.918 C 216.490 167.176 216.650 167.532 216.650 167.925 C 216.650 168.318 216.490 168.674 216.232 168.932 C 215.974 169.190 215.618 169.350 215.225 169.350 C 214.832 169.350 214.476 169.190 214.218 168.932 C 213.960 168.674 213.800 168.318 213.800 167.925 C 213.800 167.532 213.960 167.176 214.218 166.918 C 214.476 166.660 214.832 166.500 215.225 166.500 Z " transform="matrix(0.3292175233364105, 0, 0, 0.3292175233364105, -56.1, -7.2)"/>
    <path id="ID0.34316520392894745" fill="#00CC44" stroke="none" d="M 215.225 166.500 C 215.618 166.500 215.974 166.660 216.232 166.918 C 216.490 167.176 216.650 167.532 216.650 167.925 C 216.650 168.318 216.490 168.674 216.232 168.932 C 215.974 169.190 215.618 169.350 215.225 169.350 C 214.832 169.350 214.476 169.190 214.218 168.932 C 213.960 168.674 213.800 168.318 213.800 167.925 C 213.800 167.532 213.960 167.176 214.218 166.918 C 214.476 166.660 214.832 166.500 215.225 166.500 Z " transform="matrix(0.3292175233364105, 0, 0, 0.3292175233364105, -45.05, -7)"/>
    <path id="ID0.34316520392894745" fill="#00CC44" stroke="none" d="M 215.225 166.500 C 215.618 166.500 215.974 166.660 216.232 166.918 C 216.490 167.176 216.650 167.532 216.650 167.925 C 216.650 168.318 216.490 168.674 216.232 168.932 C 215.974 169.190 215.618 169.350 215.225 169.350 C 214.832 169.350 214.476 169.190 214.218 168.932 C 213.960 168.674 213.800 168.318 213.800 167.925 C 213.800 167.532 213.960 167.176 214.218 166.918 C 214.476 166.660 214.832 166.500 215.225 166.500 Z " transform="matrix(0.3292175233364105, 0, 0, 0.3292175233364105, -60.5, -2.2)"/>
    <path id="ID0.34316520392894745" fill="#00CC44" stroke="none" d="M 215.225 166.500 C 215.618 166.500 215.974 166.660 216.232 166.918 C 216.490 167.176 216.650 167.532 216.650 167.925 C 216.650 168.318 216.490 168.674 216.232 168.932 C 215.974 169.190 215.618 169.350 215.225 169.350 C 214.832 169.350 214.476 169.190 214.218 168.932 C 213.960 168.674 213.800 168.318 213.800 167.925 C 213.800 167.532 213.960 167.176 214.218 166.918 C 214.476 166.660 214.832 166.500 215.225 166.500 Z " transform="matrix(0.3292175233364105, 0, 0, 0.3292175233364105, -48.8, -2.6)"/>
    <path id="ID0.34316520392894745" fill="#00CC44" stroke="none" d="M 215.225 166.500 C 215.618 166.500 215.974 166.660 216.232 166.918 C 216.490 167.176 216.650 167.532 216.650 167.925 C 216.650 168.318 216.490 168.674 216.232 168.932 C 215.974 169.190 215.618 169.350 215.225 169.350 C 214.832 169.350 214.476 169.190 214.218 168.932 C 213.960 168.674 213.800 168.318 213.800 167.925 C 213.800 167.532 213.960 167.176 214.218 166.918 C 214.476 166.660 214.832 166.500 215.225 166.500 Z " transform="matrix(0.3292175233364105, 0, 0, 0.3292175233364105, -60.85, 1.55)"/>
    <path id="ID0.34316520392894745" fill="#00CC44" stroke="none" d="M 215.225 166.500 C 215.618 166.500 215.974 166.660 216.232 166.918 C 216.490 167.176 216.650 167.532 216.650 167.925 C 216.650 168.318 216.490 168.674 216.232 168.932 C 215.974 169.190 215.618 169.350 215.225 169.350 C 214.832 169.350 214.476 169.190 214.218 168.932 C 213.960 168.674 213.800 168.318 213.800 167.925 C 213.800 167.532 213.960 167.176 214.218 166.918 C 214.476 166.660 214.832 166.500 215.225 166.500 Z " transform="matrix(0.3292175233364105, 0, 0, 0.3292175233364105, -44.75, 1.65)"/>
    <path id="ID0.34316520392894745" fill="#00CC44" stroke="none" d="M 215.225 166.500 C 215.618 166.500 215.974 166.660 216.232 166.918 C 216.490 167.176 216.650 167.532 216.650 167.925 C 216.650 168.318 216.490 168.674 216.232 168.932 C 215.974 169.190 215.618 169.350 215.225 169.350 C 214.832 169.350 214.476 169.190 214.218 168.932 C 213.960 168.674 213.800 168.318 213.800 167.925 C 213.800 167.532 213.960 167.176 214.218 166.918 C 214.476 166.660 214.832 166.500 215.225 166.500 Z " transform="matrix(0.3292175233364105, 0, 0, 0.3292175233364105, -50.45, 1.2)"/>
    <path id="ID0.34316520392894745" fill="#00CC44" stroke="none" d="M 215.225 166.500 C 215.618 166.500 215.974 166.660 216.232 166.918 C 216.490 167.176 216.650 167.532 216.650 167.925 C 216.650 168.318 216.490 168.674 216.232 168.932 C 215.974 169.190 215.618 169.350 215.225 169.350 C 214.832 169.350 214.476 169.190 214.218 168.932 C 213.960 168.674 213.800 168.318 213.800 167.925 C 213.800 167.532 213.960 167.176 214.218 166.918 C 214.476 166.660 214.832 166.500 215.225 166.500 Z " transform="matrix(0.3292175233364105, 0, 0, 0.3292175233364105, -56.5, 1.4)"/>
  </g>
  <g id="ID0.7326555326581001">
    <path id="ID0.8838744298554957" fill="none" stroke="#995900" stroke-width="9" stroke-linecap="round" d="M 206.650 162 L 275.300 162 " transform="matrix(0.3292175233364105, 0, 0, 0.3292175233364105, -61.5, 13.15)"/>
    <path id="ID0.8838744298554957" fill="none" stroke="#995900" stroke-width="9" stroke-linecap="round" d="M 206.650 162 L 275.300 162 " transform="matrix(-0.00032660452416166663, 0.3292173743247986, -0.3292173743247986, -0.00032660452416166663, 82.75, -1.45)"/>
    <path id="ID0.8838744298554957" fill="none" stroke="#995900" stroke-width="9" stroke-linecap="round" d="M 206.650 162 L 275.300 162 " transform="matrix(-0.00032660452416166663, 0.3292173743247986, -0.3292173743247986, -0.00032660452416166663, 59.9, -1.35)"/>
    <path id="ID0.8838744298554957" fill="none" stroke="#995900" stroke-width="9" stroke-linecap="round" d="M 206.650 162 L 275.300 162 " transform="matrix(0.3292175233364105, 0, 0, 0.3292175233364105, -61.3, 35.9)"/>
    <path id="ID0.10159317031502724" fill="#995900" stroke="#995900" stroke-width="9" d="M 210.500 164.650 L 268.850 164.650 L 268.850 223 L 210.500 223 L 210.500 164.650 Z " transform="matrix(0.3292175233364105, 0, 0, 0.3292175233364105, -61.5, 13.15)"/>
    <path id="ID0.8838744298554957" fill="none" stroke="#874C01" stroke-width="9" stroke-linecap="round" d="M 206.650 162 L 272.450 162 " transform="matrix(0.3087514638900757, 0, 0, 0.3292175233364105, -55.85, 33.45)"/>
    <path id="ID0.8838744298554957" fill="none" stroke="#874C01" stroke-width="9" stroke-linecap="round" d="M 206.650 162 L 272.450 162 " transform="matrix(0.3087514638900757, 0, 0, 0.3292175233364105, -55.9, 29)"/>
    <path id="ID0.8838744298554957" fill="none" stroke="#874C01" stroke-width="9" stroke-linecap="round" d="M 206.650 162 L 272.450 162 " transform="matrix(0.3087514638900757, 0, 0, 0.3292175233364105, -56.1, 24.5)"/>
    <path id="ID0.8838744298554957" fill="none" stroke="#874C01" stroke-width="9" stroke-linecap="round" d="M 206.650 162 L 272.450 162 " transform="matrix(0.3087514638900757, 0, 0, 0.3292175233364105, -56.15, 19.85)"/>
    <path id="ID0.8838744298554957" fill="none" stroke="#874C01" stroke-width="9" stroke-linecap="round" d="M 206.650 162 L 272.450 162 " transform="matrix(0.3087514638900757, 0, 0, 0.3292175233364105, -56.1, 14.95)"/>
    <path id="ID0.34316520392894745" fill="#00CC44" stroke="none" d="M 215.225 166.500 C 215.618 166.500 215.974 166.660 216.232 166.918 C 216.490 167.176 216.650 167.532 216.650 167.925 C 216.650 168.318 216.490 168.674 216.232 168.932 C 215.974 169.190 215.618 169.350 215.225 169.350 C 214.832 169.350 214.476 169.190 214.218 168.932 C 213.960 168.674 213.800 168.318 213.800 167.925 C 213.800 167.532 213.960 167.176 214.218 166.918 C 214.476 166.660 214.832 166.500 215.225 166.500 Z " transform="matrix(0.3292175233364105, 0, 0, 0.3292175233364105, -61.5, 13.15)"/>
    <path id="ID0.34316520392894745" fill="#00CC44" stroke="none" d="M 215.225 166.500 C 215.618 166.500 215.974 166.660 216.232 166.918 C 216.490 167.176 216.650 167.532 216.650 167.925 C 216.650 168.318 216.490 168.674 216.232 168.932 C 215.974 169.190 215.618 169.350 215.225 169.350 C 214.832 169.350 214.476 169.190 214.218 168.932 C 213.960 168.674 213.800 168.318 213.800 167.925 C 213.800 167.532 213.960 167.176 214.218 166.918 C 214.476 166.660 214.832 166.500 215.225 166.500 Z " transform="matrix(0.3292175233364105, 0, 0, 0.3292175233364105, -54.05, 12.6)"/>
    <path id="ID0.34316520392894745" fill="#00CC44" stroke="none" d="M 215.225 166.500 C 215.618 166.500 215.974 166.660 216.232 166.918 C 216.490 167.176 216.650 167.532 216.650 167.925 C 216.650 168.318 216.490 168.674 216.232 168.932 C 215.974 169.190 215.618 169.350 215.225 169.350 C 214.832 169.350 214.476 169.190 214.218 168.932 C 213.960 168.674 213.800 168.318 213.800 167.925 C 213.800 167.532 213.960 167.176 214.218 166.918 C 214.476 166.660 214.832 166.500 215.225 166.500 Z " transform="matrix(0.3292175233364105, 0, 0, 0.3292175233364105, -48.15, 13.2)"/>
    <path id="ID0.34316520392894745" fill="#00CC44" stroke="none" d="M 215.225 166.500 C 215.618 166.500 215.974 166.660 216.232 166.918 C 216.490 167.176 216.650 167.532 216.650 167.925 C 216.650 168.318 216.490 168.674 216.232 168.932 C 215.974 169.190 215.618 169.350 215.225 169.350 C 214.832 169.350 214.476 169.190 214.218 168.932 C 213.960 168.674 213.800 168.318 213.800 167.925 C 213.800 167.532 213.960 167.176 214.218 166.918 C 214.476 166.660 214.832 166.500 215.225 166.500 Z " transform="matrix(0.3292175233364105, 0, 0, 0.3292175233364105, -60.3, 17.85)"/>
    <path id="ID0.34316520392894745" fill="#00CC44" stroke="none" d="M 215.225 166.500 C 215.618 166.500 215.974 166.660 216.232 166.918 C 216.490 167.176 216.650 167.532 216.650 167.925 C 216.650 168.318 216.490 168.674 216.232 168.932 C 215.974 169.190 215.618 169.350 215.225 169.350 C 214.832 169.350 214.476 169.190 214.218 168.932 C 213.960 168.674 213.800 168.318 213.800 167.925 C 213.800 167.532 213.960 167.176 214.218 166.918 C 214.476 166.660 214.832 166.500 215.225 166.500 Z " transform="matrix(0.3292175233364105, 0, 0, 0.3292175233364105, -50.15, 18.25)"/>
    <path id="ID0.34316520392894745" fill="#00CC44" stroke="none" d="M 215.225 166.500 C 215.618 166.500 215.974 166.660 216.232 166.918 C 216.490 167.176 216.650 167.532 216.650 167.925 C 216.650 168.318 216.490 168.674 216.232 168.932 C 215.974 169.190 215.618 169.350 215.225 169.350 C 214.832 169.350 214.476 169.190 214.218 168.932 C 213.960 168.674 213.800 168.318 213.800 167.925 C 213.800 167.532 213.960 167.176 214.218 166.918 C 214.476 166.660 214.832 166.500 215.225 166.500 Z " transform="matrix(0.3292175233364105, 0, 0, 0.3292175233364105, -55.9, 22.7)"/>
    <path id="ID0.34316520392894745" fill="#00CC44" stroke="none" d="M 215.225 166.500 C 215.618 166.500 215.974 166.660 216.232 166.918 C 216.490 167.176 216.650 167.532 216.650 167.925 C 216.650 168.318 216.490 168.674 216.232 168.932 C 215.974 169.190 215.618 169.350 215.225 169.350 C 214.832 169.350 214.476 169.190 214.218 168.932 C 213.960 168.674 213.800 168.318 213.800 167.925 C 213.800 167.532 213.960 167.176 214.218 166.918 C 214.476 166.660 214.832 166.500 215.225 166.500 Z " transform="matrix(0.3292175233364105, 0, 0, 0.3292175233364105, -44.85, 22.9)"/>
    <path id="ID0.34316520392894745" fill="#00CC44" stroke="none" d="M 215.225 166.500 C 215.618 166.500 215.974 166.660 216.232 166.918 C 216.490 167.176 216.650 167.532 216.650 167.925 C 216.650 168.318 216.490 168.674 216.232 168.932 C 215.974 169.190 215.618 169.350 215.225 169.350 C 214.832 169.350 214.476 169.190 214.218 168.932 C 213.960 168.674 213.800 168.318 213.800 167.925 C 213.800 167.532 213.960 167.176 214.218 166.918 C 214.476 166.660 214.832 166.500 215.225 166.500 Z " transform="matrix(0.3292175233364105, 0, 0, 0.3292175233364105, -60.3, 27.7)"/>
    <path id="ID0.34316520392894745" fill="#00CC44" stroke="none" d="M 215.225 166.500 C 215.618 166.500 215.974 166.660 216.232 166.918 C 216.490 167.176 216.650 167.532 216.650 167.925 C 216.650 168.318 216.490 168.674 216.232 168.932 C 215.974 169.190 215.618 169.350 215.225 169.350 C 214.832 169.350 214.476 169.190 214.218 168.932 C 213.960 168.674 213.800 168.318 213.800 167.925 C 213.800 167.532 213.960 167.176 214.218 166.918 C 214.476 166.660 214.832 166.500 215.225 166.500 Z " transform="matrix(0.3292175233364105, 0, 0, 0.3292175233364105, -48.6, 27.3)"/>
    <path id="ID0.34316520392894745" fill="#00CC44" stroke="none" d="M 215.225 166.500 C 215.618 166.500 215.974 166.660 216.232 166.918 C 216.490 167.176 216.650 167.532 216.650 167.925 C 216.650 168.318 216.490 168.674 216.232 168.932 C 215.974 169.190 215.618 169.350 215.225 169.350 C 214.832 169.350 214.476 169.190 214.218 168.932 C 213.960 168.674 213.800 168.318 213.800 167.925 C 213.800 167.532 213.960 167.176 214.218 166.918 C 214.476 166.660 214.832 166.500 215.225 166.500 Z " transform="matrix(0.3292175233364105, 0, 0, 0.3292175233364105, -60.65, 31.5)"/>
    <path id="ID0.34316520392894745" fill="#00CC44" stroke="none" d="M 215.225 166.500 C 215.618 166.500 215.974 166.660 216.232 166.918 C 216.490 167.176 216.650 167.532 216.650 167.925 C 216.650 168.318 216.490 168.674 216.232 168.932 C 215.974 169.190 215.618 169.350 215.225 169.350 C 214.832 169.350 214.476 169.190 214.218 168.932 C 213.960 168.674 213.800 168.318 213.800 167.925 C 213.800 167.532 213.960 167.176 214.218 166.918 C 214.476 166.660 214.832 166.500 215.225 166.500 Z " transform="matrix(0.3292175233364105, 0, 0, 0.3292175233364105, -44.55, 31.6)"/>
    <path id="ID0.34316520392894745" fill="#00CC44" stroke="none" d="M 215.225 166.500 C 215.618 166.500 215.974 166.660 216.232 166.918 C 216.490 167.176 216.650 167.532 216.650 167.925 C 216.650 168.318 216.490 168.674 216.232 168.932 C 215.974 169.190 215.618 169.350 215.225 169.350 C 214.832 169.350 214.476 169.190 214.218 168.932 C 213.960 168.674 213.800 168.318 213.800 167.925 C 213.800 167.532 213.960 167.176 214.218 166.918 C 214.476 166.660 214.832 166.500 215.225 166.500 Z " transform="matrix(0.3292175233364105, 0, 0, 0.3292175233364105, -50.25, 31.15)"/>
    <path id="ID0.34316520392894745" fill="#00CC44" stroke="none" d="M 215.225 166.500 C 215.618 166.500 215.974 166.660 216.232 166.918 C 216.490 167.176 216.650 167.532 216.650 167.925 C 216.650 168.318 216.490 168.674 216.232 168.932 C 215.974 169.190 215.618 169.350 215.225 169.350 C 214.832 169.350 214.476 169.190 214.218 168.932 C 213.960 168.674 213.800 168.318 213.800 167.925 C 213.800 167.532 213.960 167.176 214.218 166.918 C 214.476 166.660 214.832 166.500 215.225 166.500 Z " transform="matrix(0.3292175233364105, 0, 0, 0.3292175233364105, -56.3, 31.35)"/>
  </g>
  <g id="ID0.7326555326581001">
    <path id="ID0.8838744298554957" fill="none" stroke="#995900" stroke-width="9" stroke-linecap="round" d="M 206.650 162 L 275.300 162 " transform="matrix(0.3292175233364105, 0, 0, 0.3292175233364105, -31.85, -45.1)"/>
    <path id="ID0.8838744298554957" fill="none" stroke="#995900" stroke-width="9" stroke-linecap="round" d="M 206.650 162 L 275.300 162 " transform="matrix(-0.00032660452416166663, 0.3292173743247986, -0.3292173743247986, -0.00032660452416166663, 112.4, -59.75)"/>
    <path id="ID0.8838744298554957" fill="none" stroke="#995900" stroke-width="9" stroke-linecap="round" d="M 206.650 162 L 275.300 162 " transform="matrix(-0.00032660452416166663, 0.3292173743247986, -0.3292173743247986, -0.00032660452416166663, 89.55, -59.65)"/>
    <path id="ID0.8838744298554957" fill="none" stroke="#995900" stroke-width="9" stroke-linecap="round" d="M 206.650 162 L 275.300 162 " transform="matrix(0.3292175233364105, 0, 0, 0.3292175233364105, -31.65, -22.35)"/>
    <path id="ID0.10159317031502724" fill="#995900" stroke="#995900" stroke-width="9" d="M 210.500 164.650 L 268.850 164.650 L 268.850 223 L 210.500 223 L 210.500 164.650 Z " transform="matrix(0.3292175233364105, 0, 0, 0.3292175233364105, -31.85, -45.1)"/>
    <path id="ID0.8838744298554957" fill="none" stroke="#874C01" stroke-width="9" stroke-linecap="round" d="M 206.650 162 L 272.450 162 " transform="matrix(0.3087514638900757, 0, 0, 0.3292175233364105, -26.2, -24.8)"/>
    <path id="ID0.8838744298554957" fill="none" stroke="#874C01" stroke-width="9" stroke-linecap="round" d="M 206.650 162 L 272.450 162 " transform="matrix(0.3087514638900757, 0, 0, 0.3292175233364105, -26.25, -29.25)"/>
    <path id="ID0.8838744298554957" fill="none" stroke="#874C01" stroke-width="9" stroke-linecap="round" d="M 206.650 162 L 272.450 162 " transform="matrix(0.3087514638900757, 0, 0, 0.3292175233364105, -26.45, -33.75)"/>
    <path id="ID0.8838744298554957" fill="none" stroke="#874C01" stroke-width="9" stroke-linecap="round" d="M 206.650 162 L 272.450 162 " transform="matrix(0.3087514638900757, 0, 0, 0.3292175233364105, -26.5, -38.4)"/>
    <path id="ID0.8838744298554957" fill="none" stroke="#874C01" stroke-width="9" stroke-linecap="round" d="M 206.650 162 L 272.450 162 " transform="matrix(0.3087514638900757, 0, 0, 0.3292175233364105, -26.45, -43.3)"/>
    <path id="ID0.34316520392894745" fill="#00CC44" stroke="none" d="M 215.225 166.500 C 215.618 166.500 215.974 166.660 216.232 166.918 C 216.490 167.176 216.650 167.532 216.650 167.925 C 216.650 168.318 216.490 168.674 216.232 168.932 C 215.974 169.190 215.618 169.350 215.225 169.350 C 214.832 169.350 214.476 169.190 214.218 168.932 C 213.960 168.674 213.800 168.318 213.800 167.925 C 213.800 167.532 213.960 167.176 214.218 166.918 C 214.476 166.660 214.832 166.500 215.225 166.500 Z " transform="matrix(0.3292175233364105, 0, 0, 0.3292175233364105, -31.85, -45.1)"/>
    <path id="ID0.34316520392894745" fill="#00CC44" stroke="none" d="M 215.225 166.500 C 215.618 166.500 215.974 166.660 216.232 166.918 C 216.490 167.176 216.650 167.532 216.650 167.925 C 216.650 168.318 216.490 168.674 216.232 168.932 C 215.974 169.190 215.618 169.350 215.225 169.350 C 214.832 169.350 214.476 169.190 214.218 168.932 C 213.960 168.674 213.800 168.318 213.800 167.925 C 213.800 167.532 213.960 167.176 214.218 166.918 C 214.476 166.660 214.832 166.500 215.225 166.500 Z " transform="matrix(0.3292175233364105, 0, 0, 0.3292175233364105, -24.4, -45.65)"/>
    <path id="ID0.34316520392894745" fill="#00CC44" stroke="none" d="M 215.225 166.500 C 215.618 166.500 215.974 166.660 216.232 166.918 C 216.490 167.176 216.650 167.532 216.650 167.925 C 216.650 168.318 216.490 168.674 216.232 168.932 C 215.974 169.190 215.618 169.350 215.225 169.350 C 214.832 169.350 214.476 169.190 214.218 168.932 C 213.960 168.674 213.800 168.318 213.800 167.925 C 213.800 167.532 213.960 167.176 214.218 166.918 C 214.476 166.660 214.832 166.500 215.225 166.500 Z " transform="matrix(0.3292175233364105, 0, 0, 0.3292175233364105, -18.5, -45.05)"/>
    <path id="ID0.34316520392894745" fill="#00CC44" stroke="none" d="M 215.225 166.500 C 215.618 166.500 215.974 166.660 216.232 166.918 C 216.490 167.176 216.650 167.532 216.650 167.925 C 216.650 168.318 216.490 168.674 216.232 168.932 C 215.974 169.190 215.618 169.350 215.225 169.350 C 214.832 169.350 214.476 169.190 214.218 168.932 C 213.960 168.674 213.800 168.318 213.800 167.925 C 213.800 167.532 213.960 167.176 214.218 166.918 C 214.476 166.660 214.832 166.500 215.225 166.500 Z " transform="matrix(0.3292175233364105, 0, 0, 0.3292175233364105, -30.65, -40.4)"/>
    <path id="ID0.34316520392894745" fill="#00CC44" stroke="none" d="M 215.225 166.500 C 215.618 166.500 215.974 166.660 216.232 166.918 C 216.490 167.176 216.650 167.532 216.650 167.925 C 216.650 168.318 216.490 168.674 216.232 168.932 C 215.974 169.190 215.618 169.350 215.225 169.350 C 214.832 169.350 214.476 169.190 214.218 168.932 C 213.960 168.674 213.800 168.318 213.800 167.925 C 213.800 167.532 213.960 167.176 214.218 166.918 C 214.476 166.660 214.832 166.500 215.225 166.500 Z " transform="matrix(0.3292175233364105, 0, 0, 0.3292175233364105, -20.5, -40)"/>
    <path id="ID0.34316520392894745" fill="#00CC44" stroke="none" d="M 215.225 166.500 C 215.618 166.500 215.974 166.660 216.232 166.918 C 216.490 167.176 216.650 167.532 216.650 167.925 C 216.650 168.318 216.490 168.674 216.232 168.932 C 215.974 169.190 215.618 169.350 215.225 169.350 C 214.832 169.350 214.476 169.190 214.218 168.932 C 213.960 168.674 213.800 168.318 213.800 167.925 C 213.800 167.532 213.960 167.176 214.218 166.918 C 214.476 166.660 214.832 166.500 215.225 166.500 Z " transform="matrix(0.3292175233364105, 0, 0, 0.3292175233364105, -26.25, -35.55)"/>
    <path id="ID0.34316520392894745" fill="#00CC44" stroke="none" d="M 215.225 166.500 C 215.618 166.500 215.974 166.660 216.232 166.918 C 216.490 167.176 216.650 167.532 216.650 167.925 C 216.650 168.318 216.490 168.674 216.232 168.932 C 215.974 169.190 215.618 169.350 215.225 169.350 C 214.832 169.350 214.476 169.190 214.218 168.932 C 213.960 168.674 213.800 168.318 213.800 167.925 C 213.800 167.532 213.960 167.176 214.218 166.918 C 214.476 166.660 214.832 166.500 215.225 166.500 Z " transform="matrix(0.3292175233364105, 0, 0, 0.3292175233364105, -15.2, -35.35)"/>
    <path id="ID0.34316520392894745" fill="#00CC44" stroke="none" d="M 215.225 166.500 C 215.618 166.500 215.974 166.660 216.232 166.918 C 216.490 167.176 216.650 167.532 216.650 167.925 C 216.650 168.318 216.490 168.674 216.232 168.932 C 215.974 169.190 215.618 169.350 215.225 169.350 C 214.832 169.350 214.476 169.190 214.218 168.932 C 213.960 168.674 213.800 168.318 213.800 167.925 C 213.800 167.532 213.960 167.176 214.218 166.918 C 214.476 166.660 214.832 166.500 215.225 166.500 Z " transform="matrix(0.3292175233364105, 0, 0, 0.3292175233364105, -30.65, -30.55)"/>
    <path id="ID0.34316520392894745" fill="#00CC44" stroke="none" d="M 215.225 166.500 C 215.618 166.500 215.974 166.660 216.232 166.918 C 216.490 167.176 216.650 167.532 216.650 167.925 C 216.650 168.318 216.490 168.674 216.232 168.932 C 215.974 169.190 215.618 169.350 215.225 169.350 C 214.832 169.350 214.476 169.190 214.218 168.932 C 213.960 168.674 213.800 168.318 213.800 167.925 C 213.800 167.532 213.960 167.176 214.218 166.918 C 214.476 166.660 214.832 166.500 215.225 166.500 Z " transform="matrix(0.3292175233364105, 0, 0, 0.3292175233364105, -18.95, -30.95)"/>
    <path id="ID0.34316520392894745" fill="#00CC44" stroke="none" d="M 215.225 166.500 C 215.618 166.500 215.974 166.660 216.232 166.918 C 216.490 167.176 216.650 167.532 216.650 167.925 C 216.650 168.318 216.490 168.674 216.232 168.932 C 215.974 169.190 215.618 169.350 215.225 169.350 C 214.832 169.350 214.476 169.190 214.218 168.932 C 213.960 168.674 213.800 168.318 213.800 167.925 C 213.800 167.532 213.960 167.176 214.218 166.918 C 214.476 166.660 214.832 166.500 215.225 166.500 Z " transform="matrix(0.3292175233364105, 0, 0, 0.3292175233364105, -31, -26.75)"/>
    <path id="ID0.34316520392894745" fill="#00CC44" stroke="none" d="M 215.225 166.500 C 215.618 166.500 215.974 166.660 216.232 166.918 C 216.490 167.176 216.650 167.532 216.650 167.925 C 216.650 168.318 216.490 168.674 216.232 168.932 C 215.974 169.190 215.618 169.350 215.225 169.350 C 214.832 169.350 214.476 169.190 214.218 168.932 C 213.960 168.674 213.800 168.318 213.800 167.925 C 213.800 167.532 213.960 167.176 214.218 166.918 C 214.476 166.660 214.832 166.500 215.225 166.500 Z " transform="matrix(0.3292175233364105, 0, 0, 0.3292175233364105, -14.9, -26.65)"/>
    <path id="ID0.34316520392894745" fill="#00CC44" stroke="none" d="M 215.225 166.500 C 215.618 166.500 215.974 166.660 216.232 166.918 C 216.490 167.176 216.650 167.532 216.650 167.925 C 216.650 168.318 216.490 168.674 216.232 168.932 C 215.974 169.190 215.618 169.350 215.225 169.350 C 214.832 169.350 214.476 169.190 214.218 168.932 C 213.960 168.674 213.800 168.318 213.800 167.925 C 213.800 167.532 213.960 167.176 214.218 166.918 C 214.476 166.660 214.832 166.500 215.225 166.500 Z " transform="matrix(0.3292175233364105, 0, 0, 0.3292175233364105, -20.6, -27.1)"/>
    <path id="ID0.34316520392894745" fill="#00CC44" stroke="none" d="M 215.225 166.500 C 215.618 166.500 215.974 166.660 216.232 166.918 C 216.490 167.176 216.650 167.532 216.650 167.925 C 216.650 168.318 216.490 168.674 216.232 168.932 C 215.974 169.190 215.618 169.350 215.225 169.350 C 214.832 169.350 214.476 169.190 214.218 168.932 C 213.960 168.674 213.800 168.318 213.800 167.925 C 213.800 167.532 213.960 167.176 214.218 166.918 C 214.476 166.660 214.832 166.500 215.225 166.500 Z " transform="matrix(0.3292175233364105, 0, 0, 0.3292175233364105, -26.65, -26.9)"/>
  </g>
  <g id="ID0.7326555326581001">
    <path id="ID0.8838744298554957" fill="none" stroke="#995900" stroke-width="9" stroke-linecap="round" d="M 206.650 162 L 275.300 162 " transform="matrix(0.3292175233364105, 0, 0, 0.3292175233364105, -2.5, -44.85)"/>
    <path id="ID0.8838744298554957" fill="none" stroke="#995900" stroke-width="9" stroke-linecap="round" d="M 206.650 162 L 275.300 162 " transform="matrix(-0.00032660452416166663, 0.3292173743247986, -0.3292173743247986, -0.00032660452416166663, 141.75, -59.5)"/>
    <path id="ID0.8838744298554957" fill="none" stroke="#995900" stroke-width="9" stroke-linecap="round" d="M 206.650 162 L 275.300 162 " transform="matrix(-0.00032660452416166663, 0.3292173743247986, -0.3292173743247986, -0.00032660452416166663, 118.9, -59.4)"/>
    <path id="ID0.8838744298554957" fill="none" stroke="#995900" stroke-width="9" stroke-linecap="round" d="M 206.650 162 L 275.300 162 " transform="matrix(0.3292175233364105, 0, 0, 0.3292175233364105, -2.3, -22.1)"/>
    <path id="ID0.10159317031502724" fill="#995900" stroke="#995900" stroke-width="9" d="M 210.500 164.650 L 268.850 164.650 L 268.850 223 L 210.500 223 L 210.500 164.650 Z " transform="matrix(0.3292175233364105, 0, 0, 0.3292175233364105, -2.5, -44.85)"/>
    <path id="ID0.8838744298554957" fill="none" stroke="#874C01" stroke-width="9" stroke-linecap="round" d="M 206.650 162 L 272.450 162 " transform="matrix(0.3087514638900757, 0, 0, 0.3292175233364105, 3.1, -24.55)"/>
    <path id="ID0.8838744298554957" fill="none" stroke="#874C01" stroke-width="9" stroke-linecap="round" d="M 206.650 162 L 272.450 162 " transform="matrix(0.3087514638900757, 0, 0, 0.3292175233364105, 3.05, -29)"/>
    <path id="ID0.8838744298554957" fill="none" stroke="#874C01" stroke-width="9" stroke-linecap="round" d="M 206.650 162 L 272.450 162 " transform="matrix(0.3087514638900757, 0, 0, 0.3292175233364105, 2.85, -33.5)"/>
    <path id="ID0.8838744298554957" fill="none" stroke="#874C01" stroke-width="9" stroke-linecap="round" d="M 206.650 162 L 272.450 162 " transform="matrix(0.3087514638900757, 0, 0, 0.3292175233364105, 2.8, -38.15)"/>
    <path id="ID0.8838744298554957" fill="none" stroke="#874C01" stroke-width="9" stroke-linecap="round" d="M 206.650 162 L 272.450 162 " transform="matrix(0.3087514638900757, 0, 0, 0.3292175233364105, 2.85, -43.05)"/>
    <path id="ID0.34316520392894745" fill="#00CC44" stroke="none" d="M 215.225 166.500 C 215.618 166.500 215.974 166.660 216.232 166.918 C 216.490 167.176 216.650 167.532 216.650 167.925 C 216.650 168.318 216.490 168.674 216.232 168.932 C 215.974 169.190 215.618 169.350 215.225 169.350 C 214.832 169.350 214.476 169.190 214.218 168.932 C 213.960 168.674 213.800 168.318 213.800 167.925 C 213.800 167.532 213.960 167.176 214.218 166.918 C 214.476 166.660 214.832 166.500 215.225 166.500 Z " transform="matrix(0.3292175233364105, 0, 0, 0.3292175233364105, -2.5, -44.85)"/>
    <path id="ID0.34316520392894745" fill="#00CC44" stroke="none" d="M 215.225 166.500 C 215.618 166.500 215.974 166.660 216.232 166.918 C 216.490 167.176 216.650 167.532 216.650 167.925 C 216.650 168.318 216.490 168.674 216.232 168.932 C 215.974 169.190 215.618 169.350 215.225 169.350 C 214.832 169.350 214.476 169.190 214.218 168.932 C 213.960 168.674 213.800 168.318 213.800 167.925 C 213.800 167.532 213.960 167.176 214.218 166.918 C 214.476 166.660 214.832 166.500 215.225 166.500 Z " transform="matrix(0.3292175233364105, 0, 0, 0.3292175233364105, 4.9, -45.4)"/>
    <path id="ID0.34316520392894745" fill="#00CC44" stroke="none" d="M 215.225 166.500 C 215.618 166.500 215.974 166.660 216.232 166.918 C 216.490 167.176 216.650 167.532 216.650 167.925 C 216.650 168.318 216.490 168.674 216.232 168.932 C 215.974 169.190 215.618 169.350 215.225 169.350 C 214.832 169.350 214.476 169.190 214.218 168.932 C 213.960 168.674 213.800 168.318 213.800 167.925 C 213.800 167.532 213.960 167.176 214.218 166.918 C 214.476 166.660 214.832 166.500 215.225 166.500 Z " transform="matrix(0.3292175233364105, 0, 0, 0.3292175233364105, 10.8, -44.8)"/>
    <path id="ID0.34316520392894745" fill="#00CC44" stroke="none" d="M 215.225 166.500 C 215.618 166.500 215.974 166.660 216.232 166.918 C 216.490 167.176 216.650 167.532 216.650 167.925 C 216.650 168.318 216.490 168.674 216.232 168.932 C 215.974 169.190 215.618 169.350 215.225 169.350 C 214.832 169.350 214.476 169.190 214.218 168.932 C 213.960 168.674 213.800 168.318 213.800 167.925 C 213.800 167.532 213.960 167.176 214.218 166.918 C 214.476 166.660 214.832 166.500 215.225 166.500 Z " transform="matrix(0.3292175233364105, 0, 0, 0.3292175233364105, -1.3, -40.15)"/>
    <path id="ID0.34316520392894745" fill="#00CC44" stroke="none" d="M 215.225 166.500 C 215.618 166.500 215.974 166.660 216.232 166.918 C 216.490 167.176 216.650 167.532 216.650 167.925 C 216.650 168.318 216.490 168.674 216.232 168.932 C 215.974 169.190 215.618 169.350 215.225 169.350 C 214.832 169.350 214.476 169.190 214.218 168.932 C 213.960 168.674 213.800 168.318 213.800 167.925 C 213.800 167.532 213.960 167.176 214.218 166.918 C 214.476 166.660 214.832 166.500 215.225 166.500 Z " transform="matrix(0.3292175233364105, 0, 0, 0.3292175233364105, 8.8, -39.75)"/>
    <path id="ID0.34316520392894745" fill="#00CC44" stroke="none" d="M 215.225 166.500 C 215.618 166.500 215.974 166.660 216.232 166.918 C 216.490 167.176 216.650 167.532 216.650 167.925 C 216.650 168.318 216.490 168.674 216.232 168.932 C 215.974 169.190 215.618 169.350 215.225 169.350 C 214.832 169.350 214.476 169.190 214.218 168.932 C 213.960 168.674 213.800 168.318 213.800 167.925 C 213.800 167.532 213.960 167.176 214.218 166.918 C 214.476 166.660 214.832 166.500 215.225 166.500 Z " transform="matrix(0.3292175233364105, 0, 0, 0.3292175233364105, 3.05, -35.3)"/>
    <path id="ID0.34316520392894745" fill="#00CC44" stroke="none" d="M 215.225 166.500 C 215.618 166.500 215.974 166.660 216.232 166.918 C 216.490 167.176 216.650 167.532 216.650 167.925 C 216.650 168.318 216.490 168.674 216.232 168.932 C 215.974 169.190 215.618 169.350 215.225 169.350 C 214.832 169.350 214.476 169.190 214.218 168.932 C 213.960 168.674 213.800 168.318 213.800 167.925 C 213.800 167.532 213.960 167.176 214.218 166.918 C 214.476 166.660 214.832 166.500 215.225 166.500 Z " transform="matrix(0.3292175233364105, 0, 0, 0.3292175233364105, 14.1, -35.1)"/>
    <path id="ID0.34316520392894745" fill="#00CC44" stroke="none" d="M 215.225 166.500 C 215.618 166.500 215.974 166.660 216.232 166.918 C 216.490 167.176 216.650 167.532 216.650 167.925 C 216.650 168.318 216.490 168.674 216.232 168.932 C 215.974 169.190 215.618 169.350 215.225 169.350 C 214.832 169.350 214.476 169.190 214.218 168.932 C 213.960 168.674 213.800 168.318 213.800 167.925 C 213.800 167.532 213.960 167.176 214.218 166.918 C 214.476 166.660 214.832 166.500 215.225 166.500 Z " transform="matrix(0.3292175233364105, 0, 0, 0.3292175233364105, -1.3, -30.3)"/>
    <path id="ID0.34316520392894745" fill="#00CC44" stroke="none" d="M 215.225 166.500 C 215.618 166.500 215.974 166.660 216.232 166.918 C 216.490 167.176 216.650 167.532 216.650 167.925 C 216.650 168.318 216.490 168.674 216.232 168.932 C 215.974 169.190 215.618 169.350 215.225 169.350 C 214.832 169.350 214.476 169.190 214.218 168.932 C 213.960 168.674 213.800 168.318 213.800 167.925 C 213.800 167.532 213.960 167.176 214.218 166.918 C 214.476 166.660 214.832 166.500 215.225 166.500 Z " transform="matrix(0.3292175233364105, 0, 0, 0.3292175233364105, 10.35, -30.7)"/>
    <path id="ID0.34316520392894745" fill="#00CC44" stroke="none" d="M 215.225 166.500 C 215.618 166.500 215.974 166.660 216.232 166.918 C 216.490 167.176 216.650 167.532 216.650 167.925 C 216.650 168.318 216.490 168.674 216.232 168.932 C 215.974 169.190 215.618 169.350 215.225 169.350 C 214.832 169.350 214.476 169.190 214.218 168.932 C 213.960 168.674 213.800 168.318 213.800 167.925 C 213.800 167.532 213.960 167.176 214.218 166.918 C 214.476 166.660 214.832 166.500 215.225 166.500 Z " transform="matrix(0.3292175233364105, 0, 0, 0.3292175233364105, -1.65, -26.5)"/>
    <path id="ID0.34316520392894745" fill="#00CC44" stroke="none" d="M 215.225 166.500 C 215.618 166.500 215.974 166.660 216.232 166.918 C 216.490 167.176 216.650 167.532 216.650 167.925 C 216.650 168.318 216.490 168.674 216.232 168.932 C 215.974 169.190 215.618 169.350 215.225 169.350 C 214.832 169.350 214.476 169.190 214.218 168.932 C 213.960 168.674 213.800 168.318 213.800 167.925 C 213.800 167.532 213.960 167.176 214.218 166.918 C 214.476 166.660 214.832 166.500 215.225 166.500 Z " transform="matrix(0.3292175233364105, 0, 0, 0.3292175233364105, 14.4, -26.4)"/>
    <path id="ID0.34316520392894745" fill="#00CC44" stroke="none" d="M 215.225 166.500 C 215.618 166.500 215.974 166.660 216.232 166.918 C 216.490 167.176 216.650 167.532 216.650 167.925 C 216.650 168.318 216.490 168.674 216.232 168.932 C 215.974 169.190 215.618 169.350 215.225 169.350 C 214.832 169.350 214.476 169.190 214.218 168.932 C 213.960 168.674 213.800 168.318 213.800 167.925 C 213.800 167.532 213.960 167.176 214.218 166.918 C 214.476 166.660 214.832 166.500 215.225 166.500 Z " transform="matrix(0.3292175233364105, 0, 0, 0.3292175233364105, 8.7, -26.85)"/>
    <path id="ID0.34316520392894745" fill="#00CC44" stroke="none" d="M 215.225 166.500 C 215.618 166.500 215.974 166.660 216.232 166.918 C 216.490 167.176 216.650 167.532 216.650 167.925 C 216.650 168.318 216.490 168.674 216.232 168.932 C 215.974 169.190 215.618 169.350 215.225 169.350 C 214.832 169.350 214.476 169.190 214.218 168.932 C 213.960 168.674 213.800 168.318 213.800 167.925 C 213.800 167.532 213.960 167.176 214.218 166.918 C 214.476 166.660 214.832 166.500 215.225 166.500 Z " transform="matrix(0.3292175233364105, 0, 0, 0.3292175233364105, 2.65, -26.65)"/>
  </g>
  <g id="ID0.7326555326581001">
    <path id="ID0.8838744298554957" fill="none" stroke="#995900" stroke-width="9" stroke-linecap="round" d="M 206.650 162 L 275.300 162 " transform="matrix(0.3292175233364105, 0, 0, 0.3292175233364105, -2.9, -16.75)"/>
    <path id="ID0.8838744298554957" fill="none" stroke="#995900" stroke-width="9" stroke-linecap="round" d="M 206.650 162 L 275.300 162 " transform="matrix(-0.00032660452416166663, 0.3292173743247986, -0.3292173743247986, -0.00032660452416166663, 141.35, -31.4)"/>
    <path id="ID0.8838744298554957" fill="none" stroke="#995900" stroke-width="9" stroke-linecap="round" d="M 206.650 162 L 275.300 162 " transform="matrix(-0.00032660452416166663, 0.3292173743247986, -0.3292173743247986, -0.00032660452416166663, 118.5, -31.3)"/>
    <path id="ID0.8838744298554957" fill="none" stroke="#995900" stroke-width="9" stroke-linecap="round" d="M 206.650 162 L 275.300 162 " transform="matrix(0.3292175233364105, 0, 0, 0.3292175233364105, -2.7, 5.95)"/>
    <path id="ID0.10159317031502724" fill="#995900" stroke="#995900" stroke-width="9" d="M 210.500 164.650 L 268.850 164.650 L 268.850 223 L 210.500 223 L 210.500 164.650 Z " transform="matrix(0.3292175233364105, 0, 0, 0.3292175233364105, -2.9, -16.75)"/>
    <path id="ID0.8838744298554957" fill="none" stroke="#874C01" stroke-width="9" stroke-linecap="round" d="M 206.650 162 L 272.450 162 " transform="matrix(0.3087514638900757, 0, 0, 0.3292175233364105, 2.7, 3.5)"/>
    <path id="ID0.8838744298554957" fill="none" stroke="#874C01" stroke-width="9" stroke-linecap="round" d="M 206.650 162 L 272.450 162 " transform="matrix(0.3087514638900757, 0, 0, 0.3292175233364105, 2.65, -0.9)"/>
    <path id="ID0.8838744298554957" fill="none" stroke="#874C01" stroke-width="9" stroke-linecap="round" d="M 206.650 162 L 272.450 162 " transform="matrix(0.3087514638900757, 0, 0, 0.3292175233364105, 2.45, -5.4)"/>
    <path id="ID0.8838744298554957" fill="none" stroke="#874C01" stroke-width="9" stroke-linecap="round" d="M 206.650 162 L 272.450 162 " transform="matrix(0.3087514638900757, 0, 0, 0.3292175233364105, 2.4, -10.05)"/>
    <path id="ID0.8838744298554957" fill="none" stroke="#874C01" stroke-width="9" stroke-linecap="round" d="M 206.650 162 L 272.450 162 " transform="matrix(0.3087514638900757, 0, 0, 0.3292175233364105, 2.45, -14.95)"/>
    <path id="ID0.34316520392894745" fill="#00CC44" stroke="none" d="M 215.225 166.500 C 215.618 166.500 215.974 166.660 216.232 166.918 C 216.490 167.176 216.650 167.532 216.650 167.925 C 216.650 168.318 216.490 168.674 216.232 168.932 C 215.974 169.190 215.618 169.350 215.225 169.350 C 214.832 169.350 214.476 169.190 214.218 168.932 C 213.960 168.674 213.800 168.318 213.800 167.925 C 213.800 167.532 213.960 167.176 214.218 166.918 C 214.476 166.660 214.832 166.500 215.225 166.500 Z " transform="matrix(0.3292175233364105, 0, 0, 0.3292175233364105, -2.9, -16.75)"/>
    <path id="ID0.34316520392894745" fill="#00CC44" stroke="none" d="M 215.225 166.500 C 215.618 166.500 215.974 166.660 216.232 166.918 C 216.490 167.176 216.650 167.532 216.650 167.925 C 216.650 168.318 216.490 168.674 216.232 168.932 C 215.974 169.190 215.618 169.350 215.225 169.350 C 214.832 169.350 214.476 169.190 214.218 168.932 C 213.960 168.674 213.800 168.318 213.800 167.925 C 213.800 167.532 213.960 167.176 214.218 166.918 C 214.476 166.660 214.832 166.500 215.225 166.500 Z " transform="matrix(0.3292175233364105, 0, 0, 0.3292175233364105, 4.5, -17.3)"/>
    <path id="ID0.34316520392894745" fill="#00CC44" stroke="none" d="M 215.225 166.500 C 215.618 166.500 215.974 166.660 216.232 166.918 C 216.490 167.176 216.650 167.532 216.650 167.925 C 216.650 168.318 216.490 168.674 216.232 168.932 C 215.974 169.190 215.618 169.350 215.225 169.350 C 214.832 169.350 214.476 169.190 214.218 168.932 C 213.960 168.674 213.800 168.318 213.800 167.925 C 213.800 167.532 213.960 167.176 214.218 166.918 C 214.476 166.660 214.832 166.500 215.225 166.500 Z " transform="matrix(0.3292175233364105, 0, 0, 0.3292175233364105, 10.4, -16.7)"/>
    <path id="ID0.34316520392894745" fill="#00CC44" stroke="none" d="M 215.225 166.500 C 215.618 166.500 215.974 166.660 216.232 166.918 C 216.490 167.176 216.650 167.532 216.650 167.925 C 216.650 168.318 216.490 168.674 216.232 168.932 C 215.974 169.190 215.618 169.350 215.225 169.350 C 214.832 169.350 214.476 169.190 214.218 168.932 C 213.960 168.674 213.800 168.318 213.800 167.925 C 213.800 167.532 213.960 167.176 214.218 166.918 C 214.476 166.660 214.832 166.500 215.225 166.500 Z " transform="matrix(0.3292175233364105, 0, 0, 0.3292175233364105, -1.7, -12.05)"/>
    <path id="ID0.34316520392894745" fill="#00CC44" stroke="none" d="M 215.225 166.500 C 215.618 166.500 215.974 166.660 216.232 166.918 C 216.490 167.176 216.650 167.532 216.650 167.925 C 216.650 168.318 216.490 168.674 216.232 168.932 C 215.974 169.190 215.618 169.350 215.225 169.350 C 214.832 169.350 214.476 169.190 214.218 168.932 C 213.960 168.674 213.800 168.318 213.800 167.925 C 213.800 167.532 213.960 167.176 214.218 166.918 C 214.476 166.660 214.832 166.500 215.225 166.500 Z " transform="matrix(0.3292175233364105, 0, 0, 0.3292175233364105, 8.4, -11.65)"/>
    <path id="ID0.34316520392894745" fill="#00CC44" stroke="none" d="M 215.225 166.500 C 215.618 166.500 215.974 166.660 216.232 166.918 C 216.490 167.176 216.650 167.532 216.650 167.925 C 216.650 168.318 216.490 168.674 216.232 168.932 C 215.974 169.190 215.618 169.350 215.225 169.350 C 214.832 169.350 214.476 169.190 214.218 168.932 C 213.960 168.674 213.800 168.318 213.800 167.925 C 213.800 167.532 213.960 167.176 214.218 166.918 C 214.476 166.660 214.832 166.500 215.225 166.500 Z " transform="matrix(0.3292175233364105, 0, 0, 0.3292175233364105, 2.65, -7.2)"/>
    <path id="ID0.34316520392894745" fill="#00CC44" stroke="none" d="M 215.225 166.500 C 215.618 166.500 215.974 166.660 216.232 166.918 C 216.490 167.176 216.650 167.532 216.650 167.925 C 216.650 168.318 216.490 168.674 216.232 168.932 C 215.974 169.190 215.618 169.350 215.225 169.350 C 214.832 169.350 214.476 169.190 214.218 168.932 C 213.960 168.674 213.800 168.318 213.800 167.925 C 213.800 167.532 213.960 167.176 214.218 166.918 C 214.476 166.660 214.832 166.500 215.225 166.500 Z " transform="matrix(0.3292175233364105, 0, 0, 0.3292175233364105, 13.7, -7)"/>
    <path id="ID0.34316520392894745" fill="#00CC44" stroke="none" d="M 215.225 166.500 C 215.618 166.500 215.974 166.660 216.232 166.918 C 216.490 167.176 216.650 167.532 216.650 167.925 C 216.650 168.318 216.490 168.674 216.232 168.932 C 215.974 169.190 215.618 169.350 215.225 169.350 C 214.832 169.350 214.476 169.190 214.218 168.932 C 213.960 168.674 213.800 168.318 213.800 167.925 C 213.800 167.532 213.960 167.176 214.218 166.918 C 214.476 166.660 214.832 166.500 215.225 166.500 Z " transform="matrix(0.3292175233364105, 0, 0, 0.3292175233364105, -1.7, -2.2)"/>
    <path id="ID0.34316520392894745" fill="#00CC44" stroke="none" d="M 215.225 166.500 C 215.618 166.500 215.974 166.660 216.232 166.918 C 216.490 167.176 216.650 167.532 216.650 167.925 C 216.650 168.318 216.490 168.674 216.232 168.932 C 215.974 169.190 215.618 169.350 215.225 169.350 C 214.832 169.350 214.476 169.190 214.218 168.932 C 213.960 168.674 213.800 168.318 213.800 167.925 C 213.800 167.532 213.960 167.176 214.218 166.918 C 214.476 166.660 214.832 166.500 215.225 166.500 Z " transform="matrix(0.3292175233364105, 0, 0, 0.3292175233364105, 9.95, -2.6)"/>
    <path id="ID0.34316520392894745" fill="#00CC44" stroke="none" d="M 215.225 166.500 C 215.618 166.500 215.974 166.660 216.232 166.918 C 216.490 167.176 216.650 167.532 216.650 167.925 C 216.650 168.318 216.490 168.674 216.232 168.932 C 215.974 169.190 215.618 169.350 215.225 169.350 C 214.832 169.350 214.476 169.190 214.218 168.932 C 213.960 168.674 213.800 168.318 213.800 167.925 C 213.800 167.532 213.960 167.176 214.218 166.918 C 214.476 166.660 214.832 166.500 215.225 166.500 Z " transform="matrix(0.3292175233364105, 0, 0, 0.3292175233364105, -2.05, 1.55)"/>
    <path id="ID0.34316520392894745" fill="#00CC44" stroke="none" d="M 215.225 166.500 C 215.618 166.500 215.974 166.660 216.232 166.918 C 216.490 167.176 216.650 167.532 216.650 167.925 C 216.650 168.318 216.490 168.674 216.232 168.932 C 215.974 169.190 215.618 169.350 215.225 169.350 C 214.832 169.350 214.476 169.190 214.218 168.932 C 213.960 168.674 213.800 168.318 213.800 167.925 C 213.800 167.532 213.960 167.176 214.218 166.918 C 214.476 166.660 214.832 166.500 215.225 166.500 Z " transform="matrix(0.3292175233364105, 0, 0, 0.3292175233364105, 14, 1.65)"/>
    <path id="ID0.34316520392894745" fill="#00CC44" stroke="none" d="M 215.225 166.500 C 215.618 166.500 215.974 166.660 216.232 166.918 C 216.490 167.176 216.650 167.532 216.650 167.925 C 216.650 168.318 216.490 168.674 216.232 168.932 C 215.974 169.190 215.618 169.350 215.225 169.350 C 214.832 169.350 214.476 169.190 214.218 168.932 C 213.960 168.674 213.800 168.318 213.800 167.925 C 213.800 167.532 213.960 167.176 214.218 166.918 C 214.476 166.660 214.832 166.500 215.225 166.500 Z " transform="matrix(0.3292175233364105, 0, 0, 0.3292175233364105, 8.3, 1.2)"/>
    <path id="ID0.34316520392894745" fill="#00CC44" stroke="none" d="M 215.225 166.500 C 215.618 166.500 215.974 166.660 216.232 166.918 C 216.490 167.176 216.650 167.532 216.650 167.925 C 216.650 168.318 216.490 168.674 216.232 168.932 C 215.974 169.190 215.618 169.350 215.225 169.350 C 214.832 169.350 214.476 169.190 214.218 168.932 C 213.960 168.674 213.800 168.318 213.800 167.925 C 213.800 167.532 213.960 167.176 214.218 166.918 C 214.476 166.660 214.832 166.500 215.225 166.500 Z " transform="matrix(0.3292175233364105, 0, 0, 0.3292175233364105, 2.25, 1.4)"/>
  </g>
  <g id="ID0.7326555326581001">
    <path id="ID0.8838744298554957" fill="none" stroke="#995900" stroke-width="9" stroke-linecap="round" d="M 206.650 162 L 275.300 162 " transform="matrix(0.3292175233364105, 0, 0, 0.3292175233364105, -3.4, 11.55)"/>
    <path id="ID0.8838744298554957" fill="none" stroke="#995900" stroke-width="9" stroke-linecap="round" d="M 206.650 162 L 275.300 162 " transform="matrix(-0.00032660452416166663, 0.3292173743247986, -0.3292173743247986, -0.00032660452416166663, 140.85, -3.05)"/>
    <path id="ID0.8838744298554957" fill="none" stroke="#995900" stroke-width="9" stroke-linecap="round" d="M 206.650 162 L 275.300 162 " transform="matrix(-0.00032660452416166663, 0.3292173743247986, -0.3292173743247986, -0.00032660452416166663, 118, -2.95)"/>
    <path id="ID0.8838744298554957" fill="none" stroke="#995900" stroke-width="9" stroke-linecap="round" d="M 206.650 162 L 275.300 162 " transform="matrix(0.3292175233364105, 0, 0, 0.3292175233364105, -3.2, 34.3)"/>
    <path id="ID0.10159317031502724" fill="#995900" stroke="#995900" stroke-width="9" d="M 210.500 164.650 L 268.850 164.650 L 268.850 223 L 210.500 223 L 210.500 164.650 Z " transform="matrix(0.3292175233364105, 0, 0, 0.3292175233364105, -3.4, 11.55)"/>
    <path id="ID0.8838744298554957" fill="none" stroke="#874C01" stroke-width="9" stroke-linecap="round" d="M 206.650 162 L 272.450 162 " transform="matrix(0.3087514638900757, 0, 0, 0.3292175233364105, 2.2, 31.85)"/>
    <path id="ID0.8838744298554957" fill="none" stroke="#874C01" stroke-width="9" stroke-linecap="round" d="M 206.650 162 L 272.450 162 " transform="matrix(0.3087514638900757, 0, 0, 0.3292175233364105, 2.15, 27.4)"/>
    <path id="ID0.8838744298554957" fill="none" stroke="#874C01" stroke-width="9" stroke-linecap="round" d="M 206.650 162 L 272.450 162 " transform="matrix(0.3087514638900757, 0, 0, 0.3292175233364105, 1.95, 22.9)"/>
    <path id="ID0.8838744298554957" fill="none" stroke="#874C01" stroke-width="9" stroke-linecap="round" d="M 206.650 162 L 272.450 162 " transform="matrix(0.3087514638900757, 0, 0, 0.3292175233364105, 1.9, 18.25)"/>
    <path id="ID0.8838744298554957" fill="none" stroke="#874C01" stroke-width="9" stroke-linecap="round" d="M 206.650 162 L 272.450 162 " transform="matrix(0.3087514638900757, 0, 0, 0.3292175233364105, 1.95, 13.35)"/>
    <path id="ID0.34316520392894745" fill="#00CC44" stroke="none" d="M 215.225 166.500 C 215.618 166.500 215.974 166.660 216.232 166.918 C 216.490 167.176 216.650 167.532 216.650 167.925 C 216.650 168.318 216.490 168.674 216.232 168.932 C 215.974 169.190 215.618 169.350 215.225 169.350 C 214.832 169.350 214.476 169.190 214.218 168.932 C 213.960 168.674 213.800 168.318 213.800 167.925 C 213.800 167.532 213.960 167.176 214.218 166.918 C 214.476 166.660 214.832 166.500 215.225 166.500 Z " transform="matrix(0.3292175233364105, 0, 0, 0.3292175233364105, -3.4, 11.55)"/>
    <path id="ID0.34316520392894745" fill="#00CC44" stroke="none" d="M 215.225 166.500 C 215.618 166.500 215.974 166.660 216.232 166.918 C 216.490 167.176 216.650 167.532 216.650 167.925 C 216.650 168.318 216.490 168.674 216.232 168.932 C 215.974 169.190 215.618 169.350 215.225 169.350 C 214.832 169.350 214.476 169.190 214.218 168.932 C 213.960 168.674 213.800 168.318 213.800 167.925 C 213.800 167.532 213.960 167.176 214.218 166.918 C 214.476 166.660 214.832 166.500 215.225 166.500 Z " transform="matrix(0.3292175233364105, 0, 0, 0.3292175233364105, 4, 11)"/>
    <path id="ID0.34316520392894745" fill="#00CC44" stroke="none" d="M 215.225 166.500 C 215.618 166.500 215.974 166.660 216.232 166.918 C 216.490 167.176 216.650 167.532 216.650 167.925 C 216.650 168.318 216.490 168.674 216.232 168.932 C 215.974 169.190 215.618 169.350 215.225 169.350 C 214.832 169.350 214.476 169.190 214.218 168.932 C 213.960 168.674 213.800 168.318 213.800 167.925 C 213.800 167.532 213.960 167.176 214.218 166.918 C 214.476 166.660 214.832 166.500 215.225 166.500 Z " transform="matrix(0.3292175233364105, 0, 0, 0.3292175233364105, 9.9, 11.6)"/>
    <path id="ID0.34316520392894745" fill="#00CC44" stroke="none" d="M 215.225 166.500 C 215.618 166.500 215.974 166.660 216.232 166.918 C 216.490 167.176 216.650 167.532 216.650 167.925 C 216.650 168.318 216.490 168.674 216.232 168.932 C 215.974 169.190 215.618 169.350 215.225 169.350 C 214.832 169.350 214.476 169.190 214.218 168.932 C 213.960 168.674 213.800 168.318 213.800 167.925 C 213.800 167.532 213.960 167.176 214.218 166.918 C 214.476 166.660 214.832 166.500 215.225 166.500 Z " transform="matrix(0.3292175233364105, 0, 0, 0.3292175233364105, -2.2, 16.25)"/>
    <path id="ID0.34316520392894745" fill="#00CC44" stroke="none" d="M 215.225 166.500 C 215.618 166.500 215.974 166.660 216.232 166.918 C 216.490 167.176 216.650 167.532 216.650 167.925 C 216.650 168.318 216.490 168.674 216.232 168.932 C 215.974 169.190 215.618 169.350 215.225 169.350 C 214.832 169.350 214.476 169.190 214.218 168.932 C 213.960 168.674 213.800 168.318 213.800 167.925 C 213.800 167.532 213.960 167.176 214.218 166.918 C 214.476 166.660 214.832 166.500 215.225 166.500 Z " transform="matrix(0.3292175233364105, 0, 0, 0.3292175233364105, 7.9, 16.65)"/>
    <path id="ID0.34316520392894745" fill="#00CC44" stroke="none" d="M 215.225 166.500 C 215.618 166.500 215.974 166.660 216.232 166.918 C 216.490 167.176 216.650 167.532 216.650 167.925 C 216.650 168.318 216.490 168.674 216.232 168.932 C 215.974 169.190 215.618 169.350 215.225 169.350 C 214.832 169.350 214.476 169.190 214.218 168.932 C 213.960 168.674 213.800 168.318 213.800 167.925 C 213.800 167.532 213.960 167.176 214.218 166.918 C 214.476 166.660 214.832 166.500 215.225 166.500 Z " transform="matrix(0.3292175233364105, 0, 0, 0.3292175233364105, 2.15, 21.1)"/>
    <path id="ID0.34316520392894745" fill="#00CC44" stroke="none" d="M 215.225 166.500 C 215.618 166.500 215.974 166.660 216.232 166.918 C 216.490 167.176 216.650 167.532 216.650 167.925 C 216.650 168.318 216.490 168.674 216.232 168.932 C 215.974 169.190 215.618 169.350 215.225 169.350 C 214.832 169.350 214.476 169.190 214.218 168.932 C 213.960 168.674 213.800 168.318 213.800 167.925 C 213.800 167.532 213.960 167.176 214.218 166.918 C 214.476 166.660 214.832 166.500 215.225 166.500 Z " transform="matrix(0.3292175233364105, 0, 0, 0.3292175233364105, 13.2, 21.3)"/>
    <path id="ID0.34316520392894745" fill="#00CC44" stroke="none" d="M 215.225 166.500 C 215.618 166.500 215.974 166.660 216.232 166.918 C 216.490 167.176 216.650 167.532 216.650 167.925 C 216.650 168.318 216.490 168.674 216.232 168.932 C 215.974 169.190 215.618 169.350 215.225 169.350 C 214.832 169.350 214.476 169.190 214.218 168.932 C 213.960 168.674 213.800 168.318 213.800 167.925 C 213.800 167.532 213.960 167.176 214.218 166.918 C 214.476 166.660 214.832 166.500 215.225 166.500 Z " transform="matrix(0.3292175233364105, 0, 0, 0.3292175233364105, -2.2, 26.1)"/>
    <path id="ID0.34316520392894745" fill="#00CC44" stroke="none" d="M 215.225 166.500 C 215.618 166.500 215.974 166.660 216.232 166.918 C 216.490 167.176 216.650 167.532 216.650 167.925 C 216.650 168.318 216.490 168.674 216.232 168.932 C 215.974 169.190 215.618 169.350 215.225 169.350 C 214.832 169.350 214.476 169.190 214.218 168.932 C 213.960 168.674 213.800 168.318 213.800 167.925 C 213.800 167.532 213.960 167.176 214.218 166.918 C 214.476 166.660 214.832 166.500 215.225 166.500 Z " transform="matrix(0.3292175233364105, 0, 0, 0.3292175233364105, 9.45, 25.7)"/>
    <path id="ID0.34316520392894745" fill="#00CC44" stroke="none" d="M 215.225 166.500 C 215.618 166.500 215.974 166.660 216.232 166.918 C 216.490 167.176 216.650 167.532 216.650 167.925 C 216.650 168.318 216.490 168.674 216.232 168.932 C 215.974 169.190 215.618 169.350 215.225 169.350 C 214.832 169.350 214.476 169.190 214.218 168.932 C 213.960 168.674 213.800 168.318 213.800 167.925 C 213.800 167.532 213.960 167.176 214.218 166.918 C 214.476 166.660 214.832 166.500 215.225 166.500 Z " transform="matrix(0.3292175233364105, 0, 0, 0.3292175233364105, -2.55, 29.9)"/>
    <path id="ID0.34316520392894745" fill="#00CC44" stroke="none" d="M 215.225 166.500 C 215.618 166.500 215.974 166.660 216.232 166.918 C 216.490 167.176 216.650 167.532 216.650 167.925 C 216.650 168.318 216.490 168.674 216.232 168.932 C 215.974 169.190 215.618 169.350 215.225 169.350 C 214.832 169.350 214.476 169.190 214.218 168.932 C 213.960 168.674 213.800 168.318 213.800 167.925 C 213.800 167.532 213.960 167.176 214.218 166.918 C 214.476 166.660 214.832 166.500 215.225 166.500 Z " transform="matrix(0.3292175233364105, 0, 0, 0.3292175233364105, 13.5, 30)"/>
    <path id="ID0.34316520392894745" fill="#00CC44" stroke="none" d="M 215.225 166.500 C 215.618 166.500 215.974 166.660 216.232 166.918 C 216.490 167.176 216.650 167.532 216.650 167.925 C 216.650 168.318 216.490 168.674 216.232 168.932 C 215.974 169.190 215.618 169.350 215.225 169.350 C 214.832 169.350 214.476 169.190 214.218 168.932 C 213.960 168.674 213.800 168.318 213.800 167.925 C 213.800 167.532 213.960 167.176 214.218 166.918 C 214.476 166.660 214.832 166.500 215.225 166.500 Z " transform="matrix(0.3292175233364105, 0, 0, 0.3292175233364105, 7.8, 29.55)"/>
    <path id="ID0.34316520392894745" fill="#00CC44" stroke="none" d="M 215.225 166.500 C 215.618 166.500 215.974 166.660 216.232 166.918 C 216.490 167.176 216.650 167.532 216.650 167.925 C 216.650 168.318 216.490 168.674 216.232 168.932 C 215.974 169.190 215.618 169.350 215.225 169.350 C 214.832 169.350 214.476 169.190 214.218 168.932 C 213.960 168.674 213.800 168.318 213.800 167.925 C 213.800 167.532 213.960 167.176 214.218 166.918 C 214.476 166.660 214.832 166.500 215.225 166.500 Z " transform="matrix(0.3292175233364105, 0, 0, 0.3292175233364105, 1.75, 29.75)"/>
  </g>
  <g id="ID0.7326555326581001">
    <path id="ID0.8838744298554957" fill="none" stroke="#995900" stroke-width="9" stroke-linecap="round" d="M 206.650 162 L 275.300 162 " transform="matrix(0.3292175233364105, 0, 0, 0.3292175233364105, -31.7, 12.9)"/>
    <path id="ID0.8838744298554957" fill="none" stroke="#995900" stroke-width="9" stroke-linecap="round" d="M 206.650 162 L 275.300 162 " transform="matrix(-0.00032660452416166663, 0.3292173743247986, -0.3292173743247986, -0.00032660452416166663, 112.55, -1.7)"/>
    <path id="ID0.8838744298554957" fill="none" stroke="#995900" stroke-width="9" stroke-linecap="round" d="M 206.650 162 L 275.300 162 " transform="matrix(-0.00032660452416166663, 0.3292173743247986, -0.3292173743247986, -0.00032660452416166663, 89.7, -1.6)"/>
    <path id="ID0.8838744298554957" fill="none" stroke="#995900" stroke-width="9" stroke-linecap="round" d="M 206.650 162 L 275.300 162 " transform="matrix(0.3292175233364105, 0, 0, 0.3292175233364105, -31.5, 35.65)"/>
    <path id="ID0.10159317031502724" fill="#995900" stroke="#995900" stroke-width="9" d="M 210.500 164.650 L 268.850 164.650 L 268.850 223 L 210.500 223 L 210.500 164.650 Z " transform="matrix(0.3292175233364105, 0, 0, 0.3292175233364105, -31.7, 12.9)"/>
    <path id="ID0.8838744298554957" fill="none" stroke="#874C01" stroke-width="9" stroke-linecap="round" d="M 206.650 162 L 272.450 162 " transform="matrix(0.3087514638900757, 0, 0, 0.3292175233364105, -26.05, 33.2)"/>
    <path id="ID0.8838744298554957" fill="none" stroke="#874C01" stroke-width="9" stroke-linecap="round" d="M 206.650 162 L 272.450 162 " transform="matrix(0.3087514638900757, 0, 0, 0.3292175233364105, -26.1, 28.75)"/>
    <path id="ID0.8838744298554957" fill="none" stroke="#874C01" stroke-width="9" stroke-linecap="round" d="M 206.650 162 L 272.450 162 " transform="matrix(0.3087514638900757, 0, 0, 0.3292175233364105, -26.3, 24.25)"/>
    <path id="ID0.8838744298554957" fill="none" stroke="#874C01" stroke-width="9" stroke-linecap="round" d="M 206.650 162 L 272.450 162 " transform="matrix(0.3087514638900757, 0, 0, 0.3292175233364105, -26.35, 19.6)"/>
    <path id="ID0.8838744298554957" fill="none" stroke="#874C01" stroke-width="9" stroke-linecap="round" d="M 206.650 162 L 272.450 162 " transform="matrix(0.3087514638900757, 0, 0, 0.3292175233364105, -26.3, 14.7)"/>
    <path id="ID0.34316520392894745" fill="#00CC44" stroke="none" d="M 215.225 166.500 C 215.618 166.500 215.974 166.660 216.232 166.918 C 216.490 167.176 216.650 167.532 216.650 167.925 C 216.650 168.318 216.490 168.674 216.232 168.932 C 215.974 169.190 215.618 169.350 215.225 169.350 C 214.832 169.350 214.476 169.190 214.218 168.932 C 213.960 168.674 213.800 168.318 213.800 167.925 C 213.800 167.532 213.960 167.176 214.218 166.918 C 214.476 166.660 214.832 166.500 215.225 166.500 Z " transform="matrix(0.3292175233364105, 0, 0, 0.3292175233364105, -31.7, 12.9)"/>
    <path id="ID0.34316520392894745" fill="#00CC44" stroke="none" d="M 215.225 166.500 C 215.618 166.500 215.974 166.660 216.232 166.918 C 216.490 167.176 216.650 167.532 216.650 167.925 C 216.650 168.318 216.490 168.674 216.232 168.932 C 215.974 169.190 215.618 169.350 215.225 169.350 C 214.832 169.350 214.476 169.190 214.218 168.932 C 213.960 168.674 213.800 168.318 213.800 167.925 C 213.800 167.532 213.960 167.176 214.218 166.918 C 214.476 166.660 214.832 166.500 215.225 166.500 Z " transform="matrix(0.3292175233364105, 0, 0, 0.3292175233364105, -24.25, 12.35)"/>
    <path id="ID0.34316520392894745" fill="#00CC44" stroke="none" d="M 215.225 166.500 C 215.618 166.500 215.974 166.660 216.232 166.918 C 216.490 167.176 216.650 167.532 216.650 167.925 C 216.650 168.318 216.490 168.674 216.232 168.932 C 215.974 169.190 215.618 169.350 215.225 169.350 C 214.832 169.350 214.476 169.190 214.218 168.932 C 213.960 168.674 213.800 168.318 213.800 167.925 C 213.800 167.532 213.960 167.176 214.218 166.918 C 214.476 166.660 214.832 166.500 215.225 166.500 Z " transform="matrix(0.3292175233364105, 0, 0, 0.3292175233364105, -18.35, 12.95)"/>
    <path id="ID0.34316520392894745" fill="#00CC44" stroke="none" d="M 215.225 166.500 C 215.618 166.500 215.974 166.660 216.232 166.918 C 216.490 167.176 216.650 167.532 216.650 167.925 C 216.650 168.318 216.490 168.674 216.232 168.932 C 215.974 169.190 215.618 169.350 215.225 169.350 C 214.832 169.350 214.476 169.190 214.218 168.932 C 213.960 168.674 213.800 168.318 213.800 167.925 C 213.800 167.532 213.960 167.176 214.218 166.918 C 214.476 166.660 214.832 166.500 215.225 166.500 Z " transform="matrix(0.3292175233364105, 0, 0, 0.3292175233364105, -30.5, 17.6)"/>
    <path id="ID0.34316520392894745" fill="#00CC44" stroke="none" d="M 215.225 166.500 C 215.618 166.500 215.974 166.660 216.232 166.918 C 216.490 167.176 216.650 167.532 216.650 167.925 C 216.650 168.318 216.490 168.674 216.232 168.932 C 215.974 169.190 215.618 169.350 215.225 169.350 C 214.832 169.350 214.476 169.190 214.218 168.932 C 213.960 168.674 213.800 168.318 213.800 167.925 C 213.800 167.532 213.960 167.176 214.218 166.918 C 214.476 166.660 214.832 166.500 215.225 166.500 Z " transform="matrix(0.3292175233364105, 0, 0, 0.3292175233364105, -20.35, 18)"/>
    <path id="ID0.34316520392894745" fill="#00CC44" stroke="none" d="M 215.225 166.500 C 215.618 166.500 215.974 166.660 216.232 166.918 C 216.490 167.176 216.650 167.532 216.650 167.925 C 216.650 168.318 216.490 168.674 216.232 168.932 C 215.974 169.190 215.618 169.350 215.225 169.350 C 214.832 169.350 214.476 169.190 214.218 168.932 C 213.960 168.674 213.800 168.318 213.800 167.925 C 213.800 167.532 213.960 167.176 214.218 166.918 C 214.476 166.660 214.832 166.500 215.225 166.500 Z " transform="matrix(0.3292175233364105, 0, 0, 0.3292175233364105, -26.1, 22.45)"/>
    <path id="ID0.34316520392894745" fill="#00CC44" stroke="none" d="M 215.225 166.500 C 215.618 166.500 215.974 166.660 216.232 166.918 C 216.490 167.176 216.650 167.532 216.650 167.925 C 216.650 168.318 216.490 168.674 216.232 168.932 C 215.974 169.190 215.618 169.350 215.225 169.350 C 214.832 169.350 214.476 169.190 214.218 168.932 C 213.960 168.674 213.800 168.318 213.800 167.925 C 213.800 167.532 213.960 167.176 214.218 166.918 C 214.476 166.660 214.832 166.500 215.225 166.500 Z " transform="matrix(0.3292175233364105, 0, 0, 0.3292175233364105, -15.05, 22.65)"/>
    <path id="ID0.34316520392894745" fill="#00CC44" stroke="none" d="M 215.225 166.500 C 215.618 166.500 215.974 166.660 216.232 166.918 C 216.490 167.176 216.650 167.532 216.650 167.925 C 216.650 168.318 216.490 168.674 216.232 168.932 C 215.974 169.190 215.618 169.350 215.225 169.350 C 214.832 169.350 214.476 169.190 214.218 168.932 C 213.960 168.674 213.800 168.318 213.800 167.925 C 213.800 167.532 213.960 167.176 214.218 166.918 C 214.476 166.660 214.832 166.500 215.225 166.500 Z " transform="matrix(0.3292175233364105, 0, 0, 0.3292175233364105, -30.5, 27.45)"/>
    <path id="ID0.34316520392894745" fill="#00CC44" stroke="none" d="M 215.225 166.500 C 215.618 166.500 215.974 166.660 216.232 166.918 C 216.490 167.176 216.650 167.532 216.650 167.925 C 216.650 168.318 216.490 168.674 216.232 168.932 C 215.974 169.190 215.618 169.350 215.225 169.350 C 214.832 169.350 214.476 169.190 214.218 168.932 C 213.960 168.674 213.800 168.318 213.800 167.925 C 213.800 167.532 213.960 167.176 214.218 166.918 C 214.476 166.660 214.832 166.500 215.225 166.500 Z " transform="matrix(0.3292175233364105, 0, 0, 0.3292175233364105, -18.8, 27.05)"/>
    <path id="ID0.34316520392894745" fill="#00CC44" stroke="none" d="M 215.225 166.500 C 215.618 166.500 215.974 166.660 216.232 166.918 C 216.490 167.176 216.650 167.532 216.650 167.925 C 216.650 168.318 216.490 168.674 216.232 168.932 C 215.974 169.190 215.618 169.350 215.225 169.350 C 214.832 169.350 214.476 169.190 214.218 168.932 C 213.960 168.674 213.800 168.318 213.800 167.925 C 213.800 167.532 213.960 167.176 214.218 166.918 C 214.476 166.660 214.832 166.500 215.225 166.500 Z " transform="matrix(0.3292175233364105, 0, 0, 0.3292175233364105, -30.85, 31.25)"/>
    <path id="ID0.34316520392894745" fill="#00CC44" stroke="none" d="M 215.225 166.500 C 215.618 166.500 215.974 166.660 216.232 166.918 C 216.490 167.176 216.650 167.532 216.650 167.925 C 216.650 168.318 216.490 168.674 216.232 168.932 C 215.974 169.190 215.618 169.350 215.225 169.350 C 214.832 169.350 214.476 169.190 214.218 168.932 C 213.960 168.674 213.800 168.318 213.800 167.925 C 213.800 167.532 213.960 167.176 214.218 166.918 C 214.476 166.660 214.832 166.500 215.225 166.500 Z " transform="matrix(0.3292175233364105, 0, 0, 0.3292175233364105, -14.75, 31.35)"/>
    <path id="ID0.34316520392894745" fill="#00CC44" stroke="none" d="M 215.225 166.500 C 215.618 166.500 215.974 166.660 216.232 166.918 C 216.490 167.176 216.650 167.532 216.650 167.925 C 216.650 168.318 216.490 168.674 216.232 168.932 C 215.974 169.190 215.618 169.350 215.225 169.350 C 214.832 169.350 214.476 169.190 214.218 168.932 C 213.960 168.674 213.800 168.318 213.800 167.925 C 213.800 167.532 213.960 167.176 214.218 166.918 C 214.476 166.660 214.832 166.500 215.225 166.500 Z " transform="matrix(0.3292175233364105, 0, 0, 0.3292175233364105, -20.45, 30.9)"/>
    <path id="ID0.34316520392894745" fill="#00CC44" stroke="none" d="M 215.225 166.500 C 215.618 166.500 215.974 166.660 216.232 166.918 C 216.490 167.176 216.650 167.532 216.650 167.925 C 216.650 168.318 216.490 168.674 216.232 168.932 C 215.974 169.190 215.618 169.350 215.225 169.350 C 214.832 169.350 214.476 169.190 214.218 168.932 C 213.960 168.674 213.800 168.318 213.800 167.925 C 213.800 167.532 213.960 167.176 214.218 166.918 C 214.476 166.660 214.832 166.500 215.225 166.500 Z " transform="matrix(0.3292175233364105, 0, 0, 0.3292175233364105, -26.5, 31.1)"/>
  </g>
  <path id="ID0.013466008473187685" fill="#666666" stroke="#000000" stroke-width="2" d="M 230.350 189.350 L 255.350 189.350 L 255.350 214.350 L 230.350 214.350 L 230.350 189.350 Z " transform="matrix(1, 0, 0, 1, -195.5, -153)"/>
  <path id="ID0.14299201127141714" fill="none" stroke="#000000" stroke-width="2" stroke-linecap="round" d="M 243.350 188.350 L 243.350 211 " transform="matrix(1, 0, 0, 1, -200, -151)"/>
</svg>