<svg version="1.1" width="80" height="80" viewBox="-1 -1 80 80" xmlns="http://www.w3.org/2000/svg" xmlns:xlink="http://www.w3.org/1999/xlink">
  <!-- Exported by Scratch - http://scratch.mit.edu/ -->
  <path id="ID0.8838744298554957" fill="none" stroke="#995900" stroke-width="9" stroke-linecap="round" d="M 206.650 162 L 275.300 162 " transform="matrix(1, 0, 0, 1, -202, -157)"/>
  <path id="ID0.8838744298554957" fill="none" stroke="#995900" stroke-width="9" stroke-linecap="round" d="M 206.650 162 L 275.300 162 " transform="matrix(-0.0009920629672706127, 0.9999995231628418, -0.9999995231628418, -0.0009920629672706127, 236.2, -201.4)"/>
  <path id="ID0.8838744298554957" fill="none" stroke="#995900" stroke-width="9" stroke-linecap="round" d="M 206.650 162 L 275.300 162 " transform="matrix(-0.0009920629672706127, 0.9999995231628418, -0.9999995231628418, -0.0009920629672706127, 166.8, -201.15)"/>
  <path id="ID0.8838744298554957" fill="none" stroke="#995900" stroke-width="9" stroke-linecap="round" d="M 206.650 162 L 275.300 162 " transform="matrix(1, 0, 0, 1, -201.5, -87.9)"/>
  <path id="ID0.10159317031502724" fill="#995900" stroke="#995900" stroke-width="9" d="M 210.500 164.650 L 268.850 164.650 L 268.850 223 L 210.500 223 L 210.500 164.650 Z " transform="matrix(1, 0, 0, 1, -202, -157)"/>
  <path id="ID0.8838744298554957" fill="none" stroke="#874C01" stroke-width="9" stroke-linecap="round" d="M 206.650 162 L 272.450 162 " transform="matrix(0.9378342032432556, 0, 0, 1, -184.95, -95.35)"/>
  <path id="ID0.8838744298554957" fill="none" stroke="#874C01" stroke-width="9" stroke-linecap="round" d="M 206.650 162 L 272.450 162 " transform="matrix(0.9378342032432556, 0, 0, 1, -185.1, -108.8)"/>
  <path id="ID0.8838744298554957" fill="none" stroke="#874C01" stroke-width="9" stroke-linecap="round" d="M 206.650 162 L 272.450 162 " transform="matrix(0.9378342032432556, 0, 0, 1, -185.7, -122.45)"/>
  <path id="ID0.8838744298554957" fill="none" stroke="#874C01" stroke-width="9" stroke-linecap="round" d="M 206.650 162 L 272.450 162 " transform="matrix(0.9378342032432556, 0, 0, 1, -185.75, -136.6)"/>
  <path id="ID0.8838744298554957" fill="none" stroke="#874C01" stroke-width="9" stroke-linecap="round" d="M 206.650 162 L 272.450 162 " transform="matrix(0.9378342032432556, 0, 0, 1, -185.7, -151.45)"/>
  <path id="ID0.34316520392894745" fill="#00CC44" stroke="none" d="M 215.225 166.500 C 215.618 166.500 215.974 166.660 216.232 166.918 C 216.490 167.176 216.650 167.532 216.650 167.925 C 216.650 168.318 216.490 168.674 216.232 168.932 C 215.974 169.190 215.618 169.350 215.225 169.350 C 214.832 169.350 214.476 169.190 214.218 168.932 C 213.960 168.674 213.800 168.318 213.800 167.925 C 213.800 167.532 213.960 167.176 214.218 166.918 C 214.476 166.660 214.832 166.500 215.225 166.500 Z " transform="matrix(1, 0, 0, 1, -202, -157)"/>
  <path id="ID0.34316520392894745" fill="#00CC44" stroke="none" d="M 215.225 166.500 C 215.618 166.500 215.974 166.660 216.232 166.918 C 216.490 167.176 216.650 167.532 216.650 167.925 C 216.650 168.318 216.490 168.674 216.232 168.932 C 215.974 169.190 215.618 169.350 215.225 169.350 C 214.832 169.350 214.476 169.190 214.218 168.932 C 213.960 168.674 213.800 168.318 213.800 167.925 C 213.800 167.532 213.960 167.176 214.218 166.918 C 214.476 166.660 214.832 166.500 215.225 166.500 Z " transform="matrix(1, 0, 0, 1, -179.5, -158.65)"/>
  <path id="ID0.34316520392894745" fill="#00CC44" stroke="none" d="M 215.225 166.500 C 215.618 166.500 215.974 166.660 216.232 166.918 C 216.490 167.176 216.650 167.532 216.650 167.925 C 216.650 168.318 216.490 168.674 216.232 168.932 C 215.974 169.190 215.618 169.350 215.225 169.350 C 214.832 169.350 214.476 169.190 214.218 168.932 C 213.960 168.674 213.800 168.318 213.800 167.925 C 213.800 167.532 213.960 167.176 214.218 166.918 C 214.476 166.660 214.832 166.500 215.225 166.500 Z " transform="matrix(1, 0, 0, 1, -161.45, -156.85)"/>
  <path id="ID0.34316520392894745" fill="#00CC44" stroke="none" d="M 215.225 166.500 C 215.618 166.500 215.974 166.660 216.232 166.918 C 216.490 167.176 216.650 167.532 216.650 167.925 C 216.650 168.318 216.490 168.674 216.232 168.932 C 215.974 169.190 215.618 169.350 215.225 169.350 C 214.832 169.350 214.476 169.190 214.218 168.932 C 213.960 168.674 213.800 168.318 213.800 167.925 C 213.800 167.532 213.960 167.176 214.218 166.918 C 214.476 166.660 214.832 166.500 215.225 166.500 Z " transform="matrix(1, 0, 0, 1, -198.45, -142.7)"/>
  <path id="ID0.34316520392894745" fill="#00CC44" stroke="none" d="M 215.225 166.500 C 215.618 166.500 215.974 166.660 216.232 166.918 C 216.490 167.176 216.650 167.532 216.650 167.925 C 216.650 168.318 216.490 168.674 216.232 168.932 C 215.974 169.190 215.618 169.350 215.225 169.350 C 214.832 169.350 214.476 169.190 214.218 168.932 C 213.960 168.674 213.800 168.318 213.800 167.925 C 213.800 167.532 213.960 167.176 214.218 166.918 C 214.476 166.660 214.832 166.500 215.225 166.500 Z " transform="matrix(1, 0, 0, 1, -167.6, -141.5)"/>
  <path id="ID0.34316520392894745" fill="#00CC44" stroke="none" d="M 215.225 166.500 C 215.618 166.500 215.974 166.660 216.232 166.918 C 216.490 167.176 216.650 167.532 216.650 167.925 C 216.650 168.318 216.490 168.674 216.232 168.932 C 215.974 169.190 215.618 169.350 215.225 169.350 C 214.832 169.350 214.476 169.190 214.218 168.932 C 213.960 168.674 213.800 168.318 213.800 167.925 C 213.800 167.532 213.960 167.176 214.218 166.918 C 214.476 166.660 214.832 166.500 215.225 166.500 Z " transform="matrix(1, 0, 0, 1, -185.1, -127.95)"/>
  <path id="ID0.34316520392894745" fill="#00CC44" stroke="none" d="M 215.225 166.500 C 215.618 166.500 215.974 166.660 216.232 166.918 C 216.490 167.176 216.650 167.532 216.650 167.925 C 216.650 168.318 216.490 168.674 216.232 168.932 C 215.974 169.190 215.618 169.350 215.225 169.350 C 214.832 169.350 214.476 169.190 214.218 168.932 C 213.960 168.674 213.800 168.318 213.800 167.925 C 213.800 167.532 213.960 167.176 214.218 166.918 C 214.476 166.660 214.832 166.500 215.225 166.500 Z " transform="matrix(1, 0, 0, 1, -151.45, -127.35)"/>
  <path id="ID0.34316520392894745" fill="#00CC44" stroke="none" d="M 215.225 166.500 C 215.618 166.500 215.974 166.660 216.232 166.918 C 216.490 167.176 216.650 167.532 216.650 167.925 C 216.650 168.318 216.490 168.674 216.232 168.932 C 215.974 169.190 215.618 169.350 215.225 169.350 C 214.832 169.350 214.476 169.190 214.218 168.932 C 213.960 168.674 213.800 168.318 213.800 167.925 C 213.800 167.532 213.960 167.176 214.218 166.918 C 214.476 166.660 214.832 166.500 215.225 166.500 Z " transform="matrix(1, 0, 0, 1, -198.35, -112.7)"/>
  <path id="ID0.34316520392894745" fill="#00CC44" stroke="none" d="M 215.225 166.500 C 215.618 166.500 215.974 166.660 216.232 166.918 C 216.490 167.176 216.650 167.532 216.650 167.925 C 216.650 168.318 216.490 168.674 216.232 168.932 C 215.974 169.190 215.618 169.350 215.225 169.350 C 214.832 169.350 214.476 169.190 214.218 168.932 C 213.960 168.674 213.800 168.318 213.800 167.925 C 213.800 167.532 213.960 167.176 214.218 166.918 C 214.476 166.660 214.832 166.500 215.225 166.500 Z " transform="matrix(1, 0, 0, 1, -162.85, -113.95)"/>
  <path id="ID0.34316520392894745" fill="#00CC44" stroke="none" d="M 215.225 166.500 C 215.618 166.500 215.974 166.660 216.232 166.918 C 216.490 167.176 216.650 167.532 216.650 167.925 C 216.650 168.318 216.490 168.674 216.232 168.932 C 215.974 169.190 215.618 169.350 215.225 169.350 C 214.832 169.350 214.476 169.190 214.218 168.932 C 213.960 168.674 213.800 168.318 213.800 167.925 C 213.800 167.532 213.960 167.176 214.218 166.918 C 214.476 166.660 214.832 166.500 215.225 166.500 Z " transform="matrix(1, 0, 0, 1, -199.45, -101.25)"/>
  <path id="ID0.34316520392894745" fill="#00CC44" stroke="none" d="M 215.225 166.500 C 215.618 166.500 215.974 166.660 216.232 166.918 C 216.490 167.176 216.650 167.532 216.650 167.925 C 216.650 168.318 216.490 168.674 216.232 168.932 C 215.974 169.190 215.618 169.350 215.225 169.350 C 214.832 169.350 214.476 169.190 214.218 168.932 C 213.960 168.674 213.800 168.318 213.800 167.925 C 213.800 167.532 213.960 167.176 214.218 166.918 C 214.476 166.660 214.832 166.500 215.225 166.500 Z " transform="matrix(1, 0, 0, 1, -150.6, -100.95)"/>
  <path id="ID0.34316520392894745" fill="#00CC44" stroke="none" d="M 215.225 166.500 C 215.618 166.500 215.974 166.660 216.232 166.918 C 216.490 167.176 216.650 167.532 216.650 167.925 C 216.650 168.318 216.490 168.674 216.232 168.932 C 215.974 169.190 215.618 169.350 215.225 169.350 C 214.832 169.350 214.476 169.190 214.218 168.932 C 213.960 168.674 213.800 168.318 213.800 167.925 C 213.800 167.532 213.960 167.176 214.218 166.918 C 214.476 166.660 214.832 166.500 215.225 166.500 Z " transform="matrix(1, 0, 0, 1, -167.85, -102.25)"/>
  <path id="ID0.34316520392894745" fill="#00CC44" stroke="none" d="M 215.225 166.500 C 215.618 166.500 215.974 166.660 216.232 166.918 C 216.490 167.176 216.650 167.532 216.650 167.925 C 216.650 168.318 216.490 168.674 216.232 168.932 C 215.974 169.190 215.618 169.350 215.225 169.350 C 214.832 169.350 214.476 169.190 214.218 168.932 C 213.960 168.674 213.800 168.318 213.800 167.925 C 213.800 167.532 213.960 167.176 214.218 166.918 C 214.476 166.660 214.832 166.500 215.225 166.500 Z " transform="matrix(1, 0, 0, 1, -186.35, -101.65)"/>
</svg>