<svg version="1.1" width="160" height="126" viewBox="-1 -1 160 126" xmlns="http://www.w3.org/2000/svg" xmlns:xlink="http://www.w3.org/1999/xlink">
  <!-- Exported by Scratch - http://scratch.mit.edu/ -->
  <path id="ID0.6546229068189859" fill="#414141" stroke="none" d="M 279.300 120.650 L 292.650 120.650 L 292.650 152 L 279.300 152 L 279.300 120.650 Z " transform="matrix(0.7490636706352234, 0, 0, 1, -157.85, -84.4)"/>
  <path id="ID0.6546229068189859" fill="#414141" stroke="none" d="M 279.300 120.650 L 292.650 120.650 L 292.650 152 L 279.300 152 L 279.300 120.650 Z " transform="matrix(0.7490636706352234, 0, 0, 1, -118, -84)"/>
  <path id="ID0.6546229068189859" fill="#414141" stroke="none" d="M 279.300 120.650 L 292.650 120.650 L 292.650 152 L 279.300 152 L 279.300 120.650 Z " transform="matrix(1, 0, 0, 1, -210.05, -79)"/>
  <path id="ID0.06874646712094545" fill="#666666" stroke="none" d="M 170.650 150.650 L 299.300 150.650 L 299.300 208 L 170.650 208 L 170.650 150.650 Z " transform="matrix(1, 0, 0, 1, -170.1, -83)"/>
  <g id="ID0.2896794155240059">
    <path id="ID0.26523385290056467" fill="#777777" stroke="none" d="M 139.350 165.350 C 140.729 165.350 141.979 165.910 142.885 166.815 C 143.790 167.721 144.350 168.971 144.350 170.350 C 144.350 171.729 143.790 172.979 142.885 173.885 C 141.979 174.790 140.729 175.350 139.350 175.350 C 137.971 175.350 136.721 174.790 135.815 173.885 C 134.910 172.979 134.350 171.729 134.350 170.350 C 134.350 168.971 134.910 167.721 135.815 166.815 C 136.721 165.910 137.971 165.350 139.350 165.350 Z " transform="matrix(1, 0, 0, 1, -85.05, -152.5)"/>
    <path id="ID0.26523385290056467" fill="#777777" stroke="none" d="M 139.350 165.350 C 140.729 165.350 141.979 165.910 142.885 166.815 C 143.790 167.721 144.350 168.971 144.350 170.350 C 144.350 171.729 143.790 172.979 142.885 173.885 C 141.979 174.790 140.729 175.350 139.350 175.350 C 137.971 175.350 136.721 174.790 135.815 173.885 C 134.910 172.979 134.350 171.729 134.350 170.350 C 134.350 168.971 134.910 167.721 135.815 166.815 C 136.721 165.910 137.971 165.350 139.350 165.350 Z " transform="matrix(1, 0, 0, 1, -81.85, -145.6)"/>
    <path id="ID0.26523385290056467" fill="#777777" stroke="none" d="M 139.350 165.350 C 140.729 165.350 141.979 165.910 142.885 166.815 C 143.790 167.721 144.350 168.971 144.350 170.350 C 144.350 171.729 143.790 172.979 142.885 173.885 C 141.979 174.790 140.729 175.350 139.350 175.350 C 137.971 175.350 136.721 174.790 135.815 173.885 C 134.910 172.979 134.350 171.729 134.350 170.350 C 134.350 168.971 134.910 167.721 135.815 166.815 C 136.721 165.910 137.971 165.350 139.350 165.350 Z " transform="matrix(1, 0, 0, 1, -78.8, -150.5)"/>
    <path id="ID0.26523385290056467" fill="#777777" stroke="none" d="M 139.350 165.350 C 140.729 165.350 141.979 165.910 142.885 166.815 C 143.790 167.721 144.350 168.971 144.350 170.350 C 144.350 171.729 143.790 172.979 142.885 173.885 C 141.979 174.790 140.729 175.350 139.350 175.350 C 137.971 175.350 136.721 174.790 135.815 173.885 C 134.910 172.979 134.350 171.729 134.350 170.350 C 134.350 168.971 134.910 167.721 135.815 166.815 C 136.721 165.910 137.971 165.350 139.350 165.350 Z " transform="matrix(1, 0, 0, 1, -76.55, -153.25)"/>
    <path id="ID0.26523385290056467" fill="#777777" stroke="none" d="M 139.350 165.350 C 140.729 165.350 141.979 165.910 142.885 166.815 C 143.790 167.721 144.350 168.971 144.350 170.350 C 144.350 171.729 143.790 172.979 142.885 173.885 C 141.979 174.790 140.729 175.350 139.350 175.350 C 137.971 175.350 136.721 174.790 135.815 173.885 C 134.910 172.979 134.350 171.729 134.350 170.350 C 134.350 168.971 134.910 167.721 135.815 166.815 C 136.721 165.910 137.971 165.350 139.350 165.350 Z " transform="matrix(1, 0, 0, 1, -75.05, -148)"/>
    <path id="ID0.26523385290056467" fill="#777777" stroke="none" d="M 139.350 165.350 C 140.729 165.350 141.979 165.910 142.885 166.815 C 143.790 167.721 144.350 168.971 144.350 170.350 C 144.350 171.729 143.790 172.979 142.885 173.885 C 141.979 174.790 140.729 175.350 139.350 175.350 C 137.971 175.350 136.721 174.790 135.815 173.885 C 134.910 172.979 134.350 171.729 134.350 170.350 C 134.350 168.971 134.910 167.721 135.815 166.815 C 136.721 165.910 137.971 165.350 139.350 165.350 Z " transform="matrix(1, 0, 0, 1, -70.8, -151.5)"/>
    <path id="ID0.26523385290056467" fill="#777777" stroke="none" d="M 139.350 165.350 C 140.729 165.350 141.979 165.910 142.885 166.815 C 143.790 167.721 144.350 168.971 144.350 170.350 C 144.350 171.729 143.790 172.979 142.885 173.885 C 141.979 174.790 140.729 175.350 139.350 175.350 C 137.971 175.350 136.721 174.790 135.815 173.885 C 134.910 172.979 134.350 171.729 134.350 170.350 C 134.350 168.971 134.910 167.721 135.815 166.815 C 136.721 165.910 137.971 165.350 139.350 165.350 Z " transform="matrix(1, 0, 0, 1, -68.55, -144.6)"/>
    <path id="ID0.26523385290056467" fill="#777777" stroke="none" d="M 139.350 165.350 C 140.729 165.350 141.979 165.910 142.885 166.815 C 143.790 167.721 144.350 168.971 144.350 170.350 C 144.350 171.729 143.790 172.979 142.885 173.885 C 141.979 174.790 140.729 175.350 139.350 175.350 C 137.971 175.350 136.721 174.790 135.815 173.885 C 134.910 172.979 134.350 171.729 134.350 170.350 C 134.350 168.971 134.910 167.721 135.815 166.815 C 136.721 165.910 137.971 165.350 139.350 165.350 Z " transform="matrix(1, 0, 0, 1, -73.8, -144.5)"/>
  </g>
  <g id="ID0.2896794155240059">
    <path id="ID0.26523385290056467" fill="#777777" stroke="none" d="M 139.350 165.350 C 140.729 165.350 141.979 165.910 142.885 166.815 C 143.790 167.721 144.350 168.971 144.350 170.350 C 144.350 171.729 143.790 172.979 142.885 173.885 C 141.979 174.790 140.729 175.350 139.350 175.350 C 137.971 175.350 136.721 174.790 135.815 173.885 C 134.910 172.979 134.350 171.729 134.350 170.350 C 134.350 168.971 134.910 167.721 135.815 166.815 C 136.721 165.910 137.971 165.350 139.350 165.350 Z " transform="matrix(1, 0, 0, 1, -30.55, -152.8)"/>
    <path id="ID0.26523385290056467" fill="#777777" stroke="none" d="M 139.350 165.350 C 140.729 165.350 141.979 165.910 142.885 166.815 C 143.790 167.721 144.350 168.971 144.350 170.350 C 144.350 171.729 143.790 172.979 142.885 173.885 C 141.979 174.790 140.729 175.350 139.350 175.350 C 137.971 175.350 136.721 174.790 135.815 173.885 C 134.910 172.979 134.350 171.729 134.350 170.350 C 134.350 168.971 134.910 167.721 135.815 166.815 C 136.721 165.910 137.971 165.350 139.350 165.350 Z " transform="matrix(1, 0, 0, 1, -27.4, -145.9)"/>
    <path id="ID0.26523385290056467" fill="#777777" stroke="none" d="M 139.350 165.350 C 140.729 165.350 141.979 165.910 142.885 166.815 C 143.790 167.721 144.350 168.971 144.350 170.350 C 144.350 171.729 143.790 172.979 142.885 173.885 C 141.979 174.790 140.729 175.350 139.350 175.350 C 137.971 175.350 136.721 174.790 135.815 173.885 C 134.910 172.979 134.350 171.729 134.350 170.350 C 134.350 168.971 134.910 167.721 135.815 166.815 C 136.721 165.910 137.971 165.350 139.350 165.350 Z " transform="matrix(1, 0, 0, 1, -24.3, -150.8)"/>
    <path id="ID0.26523385290056467" fill="#777777" stroke="none" d="M 139.350 165.350 C 140.729 165.350 141.979 165.910 142.885 166.815 C 143.790 167.721 144.350 168.971 144.350 170.350 C 144.350 171.729 143.790 172.979 142.885 173.885 C 141.979 174.790 140.729 175.350 139.350 175.350 C 137.971 175.350 136.721 174.790 135.815 173.885 C 134.910 172.979 134.350 171.729 134.350 170.350 C 134.350 168.971 134.910 167.721 135.815 166.815 C 136.721 165.910 137.971 165.350 139.350 165.350 Z " transform="matrix(1, 0, 0, 1, -22.05, -153.55)"/>
    <path id="ID0.26523385290056467" fill="#777777" stroke="none" d="M 139.350 165.350 C 140.729 165.350 141.979 165.910 142.885 166.815 C 143.790 167.721 144.350 168.971 144.350 170.350 C 144.350 171.729 143.790 172.979 142.885 173.885 C 141.979 174.790 140.729 175.350 139.350 175.350 C 137.971 175.350 136.721 174.790 135.815 173.885 C 134.910 172.979 134.350 171.729 134.350 170.350 C 134.350 168.971 134.910 167.721 135.815 166.815 C 136.721 165.910 137.971 165.350 139.350 165.350 Z " transform="matrix(1, 0, 0, 1, -20.55, -148.3)"/>
    <path id="ID0.26523385290056467" fill="#777777" stroke="none" d="M 139.350 165.350 C 140.729 165.350 141.979 165.910 142.885 166.815 C 143.790 167.721 144.350 168.971 144.350 170.350 C 144.350 171.729 143.790 172.979 142.885 173.885 C 141.979 174.790 140.729 175.350 139.350 175.350 C 137.971 175.350 136.721 174.790 135.815 173.885 C 134.910 172.979 134.350 171.729 134.350 170.350 C 134.350 168.971 134.910 167.721 135.815 166.815 C 136.721 165.910 137.971 165.350 139.350 165.350 Z " transform="matrix(1, 0, 0, 1, -16.3, -151.8)"/>
    <path id="ID0.26523385290056467" fill="#777777" stroke="none" d="M 139.350 165.350 C 140.729 165.350 141.979 165.910 142.885 166.815 C 143.790 167.721 144.350 168.971 144.350 170.350 C 144.350 171.729 143.790 172.979 142.885 173.885 C 141.979 174.790 140.729 175.350 139.350 175.350 C 137.971 175.350 136.721 174.790 135.815 173.885 C 134.910 172.979 134.350 171.729 134.350 170.350 C 134.350 168.971 134.910 167.721 135.815 166.815 C 136.721 165.910 137.971 165.350 139.350 165.350 Z " transform="matrix(1, 0, 0, 1, -14.05, -144.9)"/>
    <path id="ID0.26523385290056467" fill="#777777" stroke="none" d="M 139.350 165.350 C 140.729 165.350 141.979 165.910 142.885 166.815 C 143.790 167.721 144.350 168.971 144.350 170.350 C 144.350 171.729 143.790 172.979 142.885 173.885 C 141.979 174.790 140.729 175.350 139.350 175.350 C 137.971 175.350 136.721 174.790 135.815 173.885 C 134.910 172.979 134.350 171.729 134.350 170.350 C 134.350 168.971 134.910 167.721 135.815 166.815 C 136.721 165.910 137.971 165.350 139.350 165.350 Z " transform="matrix(1, 0, 0, 1, -19.3, -144.8)"/>
  </g>
  <g id="ID0.2896794155240059">
    <path id="ID0.26523385290056467" fill="#777777" stroke="none" d="M 139.350 165.350 C 140.729 165.350 141.979 165.910 142.885 166.815 C 143.790 167.721 144.350 168.971 144.350 170.350 C 144.350 171.729 143.790 172.979 142.885 173.885 C 141.979 174.790 140.729 175.350 139.350 175.350 C 137.971 175.350 136.721 174.790 135.815 173.885 C 134.910 172.979 134.350 171.729 134.350 170.350 C 134.350 168.971 134.910 167.721 135.815 166.815 C 136.721 165.910 137.971 165.350 139.350 165.350 Z " transform="matrix(1, 0, 0, 1, -59.15, -155.75)"/>
    <path id="ID0.26523385290056467" fill="#777777" stroke="none" d="M 139.350 165.350 C 140.729 165.350 141.979 165.910 142.885 166.815 C 143.790 167.721 144.350 168.971 144.350 170.350 C 144.350 171.729 143.790 172.979 142.885 173.885 C 141.979 174.790 140.729 175.350 139.350 175.350 C 137.971 175.350 136.721 174.790 135.815 173.885 C 134.910 172.979 134.350 171.729 134.350 170.350 C 134.350 168.971 134.910 167.721 135.815 166.815 C 136.721 165.910 137.971 165.350 139.350 165.350 Z " transform="matrix(1, 0, 0, 1, -56, -148.85)"/>
    <path id="ID0.26523385290056467" fill="#777777" stroke="none" d="M 139.350 165.350 C 140.729 165.350 141.979 165.910 142.885 166.815 C 143.790 167.721 144.350 168.971 144.350 170.350 C 144.350 171.729 143.790 172.979 142.885 173.885 C 141.979 174.790 140.729 175.350 139.350 175.350 C 137.971 175.350 136.721 174.790 135.815 173.885 C 134.910 172.979 134.350 171.729 134.350 170.350 C 134.350 168.971 134.910 167.721 135.815 166.815 C 136.721 165.910 137.971 165.350 139.350 165.350 Z " transform="matrix(1, 0, 0, 1, -52.9, -153.75)"/>
    <path id="ID0.26523385290056467" fill="#777777" stroke="none" d="M 139.350 165.350 C 140.729 165.350 141.979 165.910 142.885 166.815 C 143.790 167.721 144.350 168.971 144.350 170.350 C 144.350 171.729 143.790 172.979 142.885 173.885 C 141.979 174.790 140.729 175.350 139.350 175.350 C 137.971 175.350 136.721 174.790 135.815 173.885 C 134.910 172.979 134.350 171.729 134.350 170.350 C 134.350 168.971 134.910 167.721 135.815 166.815 C 136.721 165.910 137.971 165.350 139.350 165.350 Z " transform="matrix(1, 0, 0, 1, -50.65, -156.5)"/>
    <path id="ID0.26523385290056467" fill="#777777" stroke="none" d="M 139.350 165.350 C 140.729 165.350 141.979 165.910 142.885 166.815 C 143.790 167.721 144.350 168.971 144.350 170.350 C 144.350 171.729 143.790 172.979 142.885 173.885 C 141.979 174.790 140.729 175.350 139.350 175.350 C 137.971 175.350 136.721 174.790 135.815 173.885 C 134.910 172.979 134.350 171.729 134.350 170.350 C 134.350 168.971 134.910 167.721 135.815 166.815 C 136.721 165.910 137.971 165.350 139.350 165.350 Z " transform="matrix(1, 0, 0, 1, -49.15, -151.25)"/>
    <path id="ID0.26523385290056467" fill="#777777" stroke="none" d="M 139.350 165.350 C 140.729 165.350 141.979 165.910 142.885 166.815 C 143.790 167.721 144.350 168.971 144.350 170.350 C 144.350 171.729 143.790 172.979 142.885 173.885 C 141.979 174.790 140.729 175.350 139.350 175.350 C 137.971 175.350 136.721 174.790 135.815 173.885 C 134.910 172.979 134.350 171.729 134.350 170.350 C 134.350 168.971 134.910 167.721 135.815 166.815 C 136.721 165.910 137.971 165.350 139.350 165.350 Z " transform="matrix(1, 0, 0, 1, -44.9, -154.75)"/>
    <path id="ID0.26523385290056467" fill="#777777" stroke="none" d="M 139.350 165.350 C 140.729 165.350 141.979 165.910 142.885 166.815 C 143.790 167.721 144.350 168.971 144.350 170.350 C 144.350 171.729 143.790 172.979 142.885 173.885 C 141.979 174.790 140.729 175.350 139.350 175.350 C 137.971 175.350 136.721 174.790 135.815 173.885 C 134.910 172.979 134.350 171.729 134.350 170.350 C 134.350 168.971 134.910 167.721 135.815 166.815 C 136.721 165.910 137.971 165.350 139.350 165.350 Z " transform="matrix(1, 0, 0, 1, -42.65, -147.85)"/>
    <path id="ID0.26523385290056467" fill="#777777" stroke="none" d="M 139.350 165.350 C 140.729 165.350 141.979 165.910 142.885 166.815 C 143.790 167.721 144.350 168.971 144.350 170.350 C 144.350 171.729 143.790 172.979 142.885 173.885 C 141.979 174.790 140.729 175.350 139.350 175.350 C 137.971 175.350 136.721 174.790 135.815 173.885 C 134.910 172.979 134.350 171.729 134.350 170.350 C 134.350 168.971 134.910 167.721 135.815 166.815 C 136.721 165.910 137.971 165.350 139.350 165.350 Z " transform="matrix(1, 0, 0, 1, -47.9, -147.75)"/>
  </g>
  <g id="ID0.2896794155240059">
    <path id="ID0.26523385290056467" fill="#777777" stroke="none" d="M 139.350 165.350 C 140.729 165.350 141.979 165.910 142.885 166.815 C 143.790 167.721 144.350 168.971 144.350 170.350 C 144.350 171.729 143.790 172.979 142.885 173.885 C 141.979 174.790 140.729 175.350 139.350 175.350 C 137.971 175.350 136.721 174.790 135.815 173.885 C 134.910 172.979 134.350 171.729 134.350 170.350 C 134.350 168.971 134.910 167.721 135.815 166.815 C 136.721 165.910 137.971 165.350 139.350 165.350 Z " transform="matrix(1, 0, 0, 1, -2.05, -163.9)"/>
    <path id="ID0.26523385290056467" fill="#777777" stroke="none" d="M 139.350 165.350 C 140.729 165.350 141.979 165.910 142.885 166.815 C 143.790 167.721 144.350 168.971 144.350 170.350 C 144.350 171.729 143.790 172.979 142.885 173.885 C 141.979 174.790 140.729 175.350 139.350 175.350 C 137.971 175.350 136.721 174.790 135.815 173.885 C 134.910 172.979 134.350 171.729 134.350 170.350 C 134.350 168.971 134.910 167.721 135.815 166.815 C 136.721 165.910 137.971 165.350 139.350 165.350 Z " transform="matrix(1, 0, 0, 1, 1.1, -157)"/>
    <path id="ID0.26523385290056467" fill="#777777" stroke="none" d="M 139.350 165.350 C 140.729 165.350 141.979 165.910 142.885 166.815 C 143.790 167.721 144.350 168.971 144.350 170.350 C 144.350 171.729 143.790 172.979 142.885 173.885 C 141.979 174.790 140.729 175.350 139.350 175.350 C 137.971 175.350 136.721 174.790 135.815 173.885 C 134.910 172.979 134.350 171.729 134.350 170.350 C 134.350 168.971 134.910 167.721 135.815 166.815 C 136.721 165.910 137.971 165.350 139.350 165.350 Z " transform="matrix(1, 0, 0, 1, 4.2, -161.9)"/>
    <path id="ID0.26523385290056467" fill="#777777" stroke="none" d="M 139.350 165.350 C 140.729 165.350 141.979 165.910 142.885 166.815 C 143.790 167.721 144.350 168.971 144.350 170.350 C 144.350 171.729 143.790 172.979 142.885 173.885 C 141.979 174.790 140.729 175.350 139.350 175.350 C 137.971 175.350 136.721 174.790 135.815 173.885 C 134.910 172.979 134.350 171.729 134.350 170.350 C 134.350 168.971 134.910 167.721 135.815 166.815 C 136.721 165.910 137.971 165.350 139.350 165.350 Z " transform="matrix(1, 0, 0, 1, 6.45, -164.65)"/>
    <path id="ID0.26523385290056467" fill="#777777" stroke="none" d="M 139.350 165.350 C 140.729 165.350 141.979 165.910 142.885 166.815 C 143.790 167.721 144.350 168.971 144.350 170.350 C 144.350 171.729 143.790 172.979 142.885 173.885 C 141.979 174.790 140.729 175.350 139.350 175.350 C 137.971 175.350 136.721 174.790 135.815 173.885 C 134.910 172.979 134.350 171.729 134.350 170.350 C 134.350 168.971 134.910 167.721 135.815 166.815 C 136.721 165.910 137.971 165.350 139.350 165.350 Z " transform="matrix(1, 0, 0, 1, 7.95, -159.4)"/>
    <path id="ID0.26523385290056467" fill="#777777" stroke="none" d="M 139.350 165.350 C 140.729 165.350 141.979 165.910 142.885 166.815 C 143.790 167.721 144.350 168.971 144.350 170.350 C 144.350 171.729 143.790 172.979 142.885 173.885 C 141.979 174.790 140.729 175.350 139.350 175.350 C 137.971 175.350 136.721 174.790 135.815 173.885 C 134.910 172.979 134.350 171.729 134.350 170.350 C 134.350 168.971 134.910 167.721 135.815 166.815 C 136.721 165.910 137.971 165.350 139.350 165.350 Z " transform="matrix(1, 0, 0, 1, 12.2, -162.9)"/>
    <path id="ID0.26523385290056467" fill="#777777" stroke="none" d="M 139.350 165.350 C 140.729 165.350 141.979 165.910 142.885 166.815 C 143.790 167.721 144.350 168.971 144.350 170.350 C 144.350 171.729 143.790 172.979 142.885 173.885 C 141.979 174.790 140.729 175.350 139.350 175.350 C 137.971 175.350 136.721 174.790 135.815 173.885 C 134.910 172.979 134.350 171.729 134.350 170.350 C 134.350 168.971 134.910 167.721 135.815 166.815 C 136.721 165.910 137.971 165.350 139.350 165.350 Z " transform="matrix(1, 0, 0, 1, 14.45, -156)"/>
    <path id="ID0.26523385290056467" fill="#777777" stroke="none" d="M 139.350 165.350 C 140.729 165.350 141.979 165.910 142.885 166.815 C 143.790 167.721 144.350 168.971 144.350 170.350 C 144.350 171.729 143.790 172.979 142.885 173.885 C 141.979 174.790 140.729 175.350 139.350 175.350 C 137.971 175.350 136.721 174.790 135.815 173.885 C 134.910 172.979 134.350 171.729 134.350 170.350 C 134.350 168.971 134.910 167.721 135.815 166.815 C 136.721 165.910 137.971 165.350 139.350 165.350 Z " transform="matrix(1, 0, 0, 1, 9.2, -155.9)"/>
  </g>
  <path id="ID0.5998660274781287" fill="#777777" stroke="none" d="M 230.350 175.350 L 251.700 175.350 L 251.700 208 L 230.350 208 L 230.350 175.350 Z " transform="matrix(1, 0, 0, 0.888208270072937, -215.5, -59.75)"/>
  <path id="ID0.5998660274781287" fill="#777777" stroke="none" d="M 230.350 175.350 L 251.700 175.350 L 251.700 208 L 230.350 208 L 230.350 175.350 Z " transform="matrix(1, 0, 0, 0.888208270072937, -190.9, -59.8)"/>
</svg>