<svg version="1.1" width="20" height="18" viewBox="-1 -1 20 18" xmlns="http://www.w3.org/2000/svg" xmlns:xlink="http://www.w3.org/1999/xlink">
  <!-- Exported by Scratch - http://scratch.mit.edu/ -->
  <path id="ID0.9845791514962912" fill="#FFFFFF" stroke="#000000" stroke-width="1" stroke-linecap="round" d="M 209.900 168.650 L 225.750 181 L 218.750 183.150 L 222.400 191 L 218.400 193 L 213.750 184.650 L 208.250 187.650 L 209.900 168.650 Z " transform="matrix(0.3723958432674408, 0, 0, 0.3723958432674408, -76.55, -60.25)"/>
  <path id="ID0.9845791514962912" fill="#FFFFFF" stroke="#000000" stroke-width="1" stroke-linecap="round" d="M 209.900 168.650 L 225.750 181 L 218.750 183.150 L 222.400 191 L 218.400 193 L 213.750 184.650 L 208.250 187.650 L 209.900 168.650 Z " transform="matrix(0.3723958432674408, 0, 0, 0.3723958432674408, -72.1, -54.9)"/>
  <path id="ID0.9845791514962912" fill="#FFFFFF" stroke="#000000" stroke-width="1" stroke-linecap="round" d="M 209.900 168.650 L 225.750 181 L 218.750 183.150 L 222.400 191 L 218.400 193 L 213.750 184.650 L 208.250 187.650 L 209.900 168.650 Z " transform="matrix(0.3723958432674408, 0, 0, 0.3723958432674408, -65.65, -58.6)"/>
  <path id="ID0.9845791514962912" fill="#FFFFFF" stroke="#000000" stroke-width="1" stroke-linecap="round" d="M 209.900 168.650 L 225.750 181 L 218.750 183.150 L 222.400 191 L 218.400 193 L 213.750 184.650 L 208.250 187.650 L 209.900 168.650 Z " transform="matrix(0.3723958432674408, 0, 0, 0.3723958432674408, -68.65, -57.6)"/>
  <path id="ID0.9845791514962912" fill="#FFFFFF" stroke="#000000" stroke-width="1" stroke-linecap="round" d="M 209.900 168.650 L 225.750 181 L 218.750 183.150 L 222.400 191 L 218.400 193 L 213.750 184.650 L 208.250 187.650 L 209.900 168.650 Z " transform="matrix(0.3723958432674408, 0, 0, 0.3723958432674408, -72, -61.7)"/>
</svg>